<svg id="Flat" xmlns="http://www.w3.org/2000/svg" viewBox="0 0 512 512"><path d="M272.142,496h56l8-8h64.125l8,8h56s8-80-96.125-80C264.142,416,272.142,496,272.142,496Z" style="fill:#724b3b"/><path d="M47.875,496h56l8-8H176l8,8h56s8-80-96.125-80C39.875,416,47.875,496,47.875,496Z" style="fill:#724b3b"/><circle cx="144" cy="344" r="112" style="fill:#ab6647"/><circle cx="144" cy="344" r="80" style="fill:#93573d"/><path d="M144,272a8,8,0,0,1-8-8V232a8,8,0,0,1,16,0v32A8,8,0,0,1,144,272Z" style="fill:#93573d"/><path d="M87.432,295.432a7.979,7.979,0,0,1-5.657-2.343L59.147,270.461a8,8,0,1,1,11.314-11.315l22.627,22.628a8,8,0,0,1-5.656,13.658Z" style="fill:#93573d"/><path d="M64,352H32a8,8,0,0,1,0-16H64a8,8,0,0,1,0,16Z" style="fill:#93573d"/><path d="M64.8,431.2a8,8,0,0,1-5.657-13.657l22.628-22.628a8,8,0,1,1,11.313,11.315L70.461,428.854A7.977,7.977,0,0,1,64.8,431.2Z" style="fill:#93573d"/><path d="M144,464a8,8,0,0,1-8-8V424a8,8,0,0,1,16,0v32A8,8,0,0,1,144,464Z" style="fill:#93573d"/><path d="M223.2,431.2a7.977,7.977,0,0,1-5.657-2.342l-22.627-22.628a8,8,0,1,1,11.313-11.315l22.628,22.628A8,8,0,0,1,223.2,431.2Z" style="fill:#93573d"/><path d="M256,352H224a8,8,0,0,1,0-16h32a8,8,0,0,1,0,16Z" style="fill:#93573d"/><path d="M200.568,295.432a8,8,0,0,1-5.656-13.658l22.627-22.628a8,8,0,1,1,11.314,11.315l-22.628,22.628A7.979,7.979,0,0,1,200.568,295.432Z" style="fill:#93573d"/><path d="M224,344q0,4.05-.39,8a80.012,80.012,0,0,1-159.22,0q-.39-3.945-.39-8t.39-8a80.012,80.012,0,0,1,159.22,0Q224,339.945,224,344Z" style="fill:#93573d"/><path d="M213.29,304H74.71a79.866,79.866,0,0,1,12.16-16H201.13A79.866,79.866,0,0,1,213.29,304Z" style="fill:#8a523a"/><path d="M213.29,384a79.866,79.866,0,0,1-12.16,16H86.87a79.866,79.866,0,0,1-12.16-16Z" style="fill:#8a523a"/><path d="M224,344q0,4.05-.39,8H64.39q-.39-3.945-.39-8t.39-8H223.61Q224,339.945,224,344Z" style="fill:#8a523a"/><circle cx="368" cy="344" r="112" style="fill:#ab6647"/><circle cx="368" cy="344" r="80" style="fill:#93573d"/><path d="M368,272a8,8,0,0,1-8-8V232a8,8,0,0,1,16,0v32A8,8,0,0,1,368,272Z" style="fill:#93573d"/><path d="M311.432,295.432a7.979,7.979,0,0,1-5.657-2.343l-22.628-22.628a8,8,0,1,1,11.314-11.315l22.627,22.628a8,8,0,0,1-5.656,13.658Z" style="fill:#93573d"/><path d="M288,352H256a8,8,0,0,1,0-16h32a8,8,0,0,1,0,16Z" style="fill:#93573d"/><path d="M288.8,431.2a8,8,0,0,1-5.657-13.657l22.628-22.628a8,8,0,1,1,11.313,11.315l-22.627,22.628A7.977,7.977,0,0,1,288.8,431.2Z" style="fill:#93573d"/><path d="M368,464a8,8,0,0,1-8-8V424a8,8,0,0,1,16,0v32A8,8,0,0,1,368,464Z" style="fill:#93573d"/><path d="M447.2,431.2a7.977,7.977,0,0,1-5.657-2.342l-22.627-22.628a8,8,0,1,1,11.313-11.315l22.628,22.628A8,8,0,0,1,447.2,431.2Z" style="fill:#93573d"/><path d="M480,352H448a8,8,0,0,1,0-16h32a8,8,0,0,1,0,16Z" style="fill:#93573d"/><path d="M424.568,295.432a8,8,0,0,1-5.656-13.658l22.627-22.628a8,8,0,1,1,11.314,11.315l-22.628,22.628A7.979,7.979,0,0,1,424.568,295.432Z" style="fill:#93573d"/><path d="M448,344q0,4.05-.39,8a80.012,80.012,0,0,1-159.22,0q-.39-3.945-.39-8t.39-8a80.012,80.012,0,0,1,159.22,0Q448,339.945,448,344Z" style="fill:#93573d"/><path d="M437.29,304H298.71a79.866,79.866,0,0,1,12.16-16H425.13A79.866,79.866,0,0,1,437.29,304Z" style="fill:#8a523a"/><path d="M437.29,384a79.866,79.866,0,0,1-12.16,16H310.87a79.866,79.866,0,0,1-12.16-16Z" style="fill:#8a523a"/><path d="M448,344q0,4.05-.39,8H288.39q-.39-3.945-.39-8t.39-8H447.61Q448,339.945,448,344Z" style="fill:#8a523a"/><circle cx="256" cy="136" r="112" style="fill:#ab6647"/><circle cx="256" cy="136" r="80" style="fill:#93573d"/><path d="M256,64a8,8,0,0,1-8-8V24a8,8,0,0,1,16,0V56A8,8,0,0,1,256,64Z" style="fill:#93573d"/><path d="M199.432,87.432a7.979,7.979,0,0,1-5.657-2.343L171.147,62.461a8,8,0,0,1,11.314-11.315l22.627,22.628a8,8,0,0,1-5.656,13.658Z" style="fill:#93573d"/><path d="M176,144H144a8,8,0,0,1,0-16h32a8,8,0,0,1,0,16Z" style="fill:#93573d"/><path d="M176.8,223.2a8,8,0,0,1-5.657-13.657l22.628-22.628a8,8,0,0,1,11.313,11.315l-22.627,22.628A7.977,7.977,0,0,1,176.8,223.2Z" style="fill:#93573d"/><path d="M256,256a8,8,0,0,1-8-8V216a8,8,0,0,1,16,0v32A8,8,0,0,1,256,256Z" style="fill:#93573d"/><path d="M335.2,223.2a7.977,7.977,0,0,1-5.657-2.342l-22.627-22.628a8,8,0,1,1,11.313-11.315l22.628,22.628A8,8,0,0,1,335.2,223.2Z" style="fill:#93573d"/><path d="M368,144H336a8,8,0,0,1,0-16h32a8,8,0,0,1,0,16Z" style="fill:#93573d"/><path d="M312.568,87.432a8,8,0,0,1-5.656-13.658l22.627-22.628a8,8,0,1,1,11.314,11.315L318.225,85.089A7.979,7.979,0,0,1,312.568,87.432Z" style="fill:#93573d"/><path d="M336,136q0,4.05-.39,8a80.012,80.012,0,0,1-159.22,0q-.39-3.945-.39-8t.39-8a80.012,80.012,0,0,1,159.22,0Q336,131.945,336,136Z" style="fill:#93573d"/><path d="M325.29,96H186.71a79.866,79.866,0,0,1,12.16-16H313.13A79.866,79.866,0,0,1,325.29,96Z" style="fill:#8a523a"/><path d="M325.29,176a79.866,79.866,0,0,1-12.16,16H198.87a79.866,79.866,0,0,1-12.16-16Z" style="fill:#8a523a"/><path d="M336,136q0,4.05-.39,8H176.39q-.39-3.945-.39-8t.39-8H335.61Q336,131.945,336,136Z" style="fill:#8a523a"/><path d="M256,256A120,120,0,1,1,376,136,120.136,120.136,0,0,1,256,256Zm0-224A104,104,0,1,0,360,136,104.118,104.118,0,0,0,256,32Z" style="fill:#8a523a"/><path d="M368,464A120,120,0,1,1,488,344,120.136,120.136,0,0,1,368,464Zm0-224A104,104,0,1,0,472,344,104.118,104.118,0,0,0,368,240Z" style="fill:#8a523a"/><path d="M144,464A120,120,0,1,1,264,344,120.136,120.136,0,0,1,144,464Zm0-224A104,104,0,1,0,248,344,104.118,104.118,0,0,0,144,240Z" style="fill:#8a523a"/></svg>