<svg id="Flat" xmlns="http://www.w3.org/2000/svg" viewBox="0 0 512 512"><path d="M264,232V472a16,16,0,0,1-16,16H120a16,16,0,0,1-16-16V232c0-56,56-80,56-80V72h-8V24h64V72h-8v80S264,176,264,232Z" style="fill:#4f5659"/><rect x="160" y="120" width="48" height="32" style="fill:#6a7073"/><rect x="104" y="280" width="160" height="144" style="fill:#6a7073"/><polygon points="320 368 288 472 264 448 232 456 272 320 320 336 320 368" style="fill:#e4bc43"/><polygon points="320 368 352 472 376 448 408 456 368 320 320 336 320 368" style="fill:#e4bc43"/><circle cx="320" cy="280" r="88" style="fill:#f3db70"/><circle cx="320" cy="280" r="56" style="fill:#e4bc43"/><path d="M336,296h-8V256a8,8,0,0,0-8-8h-8a8,8,0,0,0,0,16v32h-8a8,8,0,0,0,0,16h32a8,8,0,0,0,0-16Z" style="fill:#931237"/><path d="M136,256a8,8,0,0,1-8-8v-8c0-29.175,17.818-46.634,28.438-54.445a8,8,0,0,1,9.48,12.89C157.732,204.465,144,217.868,144,240v8A8,8,0,0,1,136,256Z" style="fill:#6a7073"/><polygon points="216 24 216 72 208 72 208 120 160 120 160 72 152 72 152 24 216 24" style="fill:#931237"/></svg>