<svg id="Flat" xmlns="http://www.w3.org/2000/svg" viewBox="0 0 512 512"><rect x="32" y="192" width="448" height="256" style="fill:#ab6647"/><path d="M288,120a24,24,0,0,1-48,0l8-40h32Z" style="fill:#e8edf1"/><path d="M368,120a24,24,0,0,1-48,0l8-40h32Z" style="fill:#e8edf1"/><path d="M264,200a8,8,0,0,1-8-8V144a8,8,0,0,1,16,0v48A8,8,0,0,1,264,200Z" style="fill:#e8edf1"/><path d="M344,200a8,8,0,0,1-8-8V144a8,8,0,0,1,16,0v48A8,8,0,0,1,344,200Z" style="fill:#e8edf1"/><rect x="24" y="192" width="464" height="32" style="fill:#93573d"/><path d="M136,352a7.976,7.976,0,0,1-5.657-2.343l-24-24a8,8,0,0,1,11.314-11.314l24,24A8,8,0,0,1,136,352Z" style="fill:#596063"/><path d="M280,352a7.976,7.976,0,0,1-5.657-2.343l-24-24a8,8,0,0,1,11.314-11.314l24,24A8,8,0,0,1,280,352Z" style="fill:#596063"/><path d="M424,352a7.976,7.976,0,0,1-5.657-2.343l-24-24a8,8,0,0,1,11.314-11.314l24,24A8,8,0,0,1,424,352Z" style="fill:#596063"/><path d="M160,80h32a16,16,0,0,1,16,16v96a0,0,0,0,1,0,0H144a0,0,0,0,1,0,0V96A16,16,0,0,1,160,80Z" style="fill:#4f5659"/><rect x="160" y="32" width="32" height="48" style="fill:#931237"/><rect x="144" y="128" width="64" height="32" style="fill:#931237"/><path d="M288,120a24,24,0,0,1-48,0l1.6-8h44.8Z" style="fill:#931237"/><path d="M368,120a24,24,0,0,1-48,0l1.6-8h44.8Z" style="fill:#931237"/><path d="M144,480l-24-30V320a8,8,0,0,0-16,0V450L80,480Z" style="fill:#6a7073"/><rect x="64" y="272" width="96" height="48" style="fill:#4f5659"/><path d="M288,480l-24-30V317a8,8,0,0,0-16,0V450l-24,30Z" style="fill:#6a7073"/><path d="M432,480l-24-30V320a8,8,0,0,0-16,0V450l-24,30Z" style="fill:#6a7073"/><path d="M112,448c-30.253,0-44.47-24.9-47.761-38.06A8,8,0,0,1,72,400h80a8,8,0,0,1,7.761,9.94C156.47,423.1,142.253,448,112,448ZM84.189,416c4.487,7.323,12.942,16,27.811,16s23.318-8.671,27.808-16Z" style="fill:#596063"/><path d="M256,448c-30.253,0-44.47-24.9-47.761-38.06A8,8,0,0,1,216,400h80a8,8,0,0,1,7.761,9.94C300.47,423.1,286.253,448,256,448Zm-27.811-32c4.487,7.323,12.942,16,27.811,16s23.318-8.671,27.808-16Z" style="fill:#596063"/><path d="M400,448c-30.253,0-44.47-24.9-47.761-38.06A8,8,0,0,1,360,400h80a8,8,0,0,1,7.761,9.94C444.47,423.1,430.253,448,400,448Zm-27.811-32c4.487,7.323,12.942,16,27.811,16s23.318-8.671,27.808-16Z" style="fill:#596063"/><rect x="208" y="272" width="96" height="48" style="fill:#4f5659"/><rect x="352" y="272" width="96" height="48" style="fill:#4f5659"/></svg>