<svg id="Flat" xmlns="http://www.w3.org/2000/svg" viewBox="0 0 512 512"><path d="M448,248c-28.774,0-48.885-9.314-70.175-19.175C348.653,215.314,315.59,200,248,200c-116.16,0-195.1,46.4-195.89,46.863a8,8,0,0,1-8.226-13.723c.846-.508,21.131-12.574,56.521-24.707A460.242,460.242,0,0,1,248,184c71.115,0,107.4,16.8,136.55,30.307C405.893,224.192,422.751,232,448,232a24,24,0,0,0,0-48,8,8,0,0,1,0-16,40,40,0,0,1,0,80Z" style="fill:#ab6647"/><circle cx="448" cy="176" r="16" style="fill:#93573d"/><path d="M168,296a8,8,0,0,1-8-8V192a8,8,0,0,1,16,0v96A8,8,0,0,1,168,296Z" style="fill:#93573d"/><path d="M344,296a8,8,0,0,1-8-8V192a8,8,0,0,1,16,0v96A8,8,0,0,1,344,296Z" style="fill:#93573d"/><path d="M400,488H112V296q144-96,288,0Z" style="fill:#ab6647"/><rect x="200" y="296" width="32" height="56" style="fill:#931237"/><path d="M248,456H184V376a32,32,0,0,1,32-32h0a32,32,0,0,1,32,32Z" style="fill:#4f5659"/><rect x="184" y="392" width="64" height="32" style="fill:#931237"/><path d="M320,440h-8V400a8,8,0,0,0-16,0v40h-8a8,8,0,0,0,0,16h32a8,8,0,0,0,0-16Z" style="fill:#c2c5c6"/><path d="M304,72c0-32-21.49-48-48-48s-48,16-48,48c0,24,13.329,59.107,48,88C290.671,131.107,304,96,304,72Z" style="fill:#931237"/><circle cx="256" cy="72" r="16" style="fill:#e8edf1"/><rect x="24" y="104" width="32" height="208" style="fill:#93573d"/><path d="M328,376a24,24,0,0,1-48,0l8-40h32Z" style="fill:#c2c5c6"/><polygon points="326.4 368 281.6 368 288 336 320 336 326.4 368" style="fill:none"/><path d="M328,376a24,24,0,0,1-48,0l1.6-8h44.8Z" style="fill:#931237"/></svg>