<svg id="Flat" xmlns="http://www.w3.org/2000/svg" viewBox="0 0 512 512"><path d="M487.846,263.846v24h-32v-24H392v-32h63.846A32,32,0,0,1,487.846,263.846Z" style="fill:#ab6647"/><rect x="392" y="199.846" width="47.846" height="32" style="fill:#93573d"/><path d="M207.846,23.846h16a16,16,0,0,1,16,16v40a0,0,0,0,1,0,0h-48a0,0,0,0,1,0,0v-40A16,16,0,0,1,207.846,23.846Z" style="fill:#93573d"/><path d="M375.846,95.845s-40-40-160-40-160,40-160,40h-32v240h32s40,40,160,40,160-40,160-40h32v-240Z" style="fill:#ab6647"/><rect x="23.846" y="95.846" width="32" height="240" style="fill:#93573d"/><rect x="375.846" y="95.846" width="32" height="240" transform="translate(783.691 431.691) rotate(-180)" style="fill:#93573d"/><path d="M488,360a16,16,0,0,1-32,0c0-24,16-40,16-40S488,336,488,360Z" style="fill:#931237"/><path d="M376,224H56a8,8,0,0,1,0-16H376a8,8,0,0,1,0,16Z" style="fill:#93573d"/><path d="M215.846,320C94.339,320,44.914,279.847,42.869,278.138l10.262-12.276C53.57,266.223,100.853,304,215.846,304c115.771,0,162.583-37.772,163.043-38.154l10.222,12.308C387.055,279.862,337.338,320,215.846,320Z" style="fill:#93573d"/><path d="M53.106,166.159l-10.237-12.3C44.914,152.153,94.339,112,215.846,112s171.209,40.138,173.265,41.846l-10.222,12.308C378.446,165.792,330.861,128,215.846,128c-60.155,0-101.228,10.4-125.091,19.114C64.982,156.532,53.222,166.063,53.106,166.159Z" style="fill:#93573d"/><rect x="87.846" y="335.846" width="32" height="152" style="fill:#93573d"/><rect x="311.846" y="335.846" width="32" height="152" style="fill:#93573d"/><rect x="119.846" y="407.846" width="192" height="32" style="fill:#ab6647"/><path d="M151.846,60.2V371.5a313.2,313.2,0,0,1-32-6.319V66.515A313.473,313.473,0,0,1,151.846,60.2Z" style="fill:#93573d"/><path d="M279.846,60.2V371.5a313.2,313.2,0,0,0,32-6.319V66.515A313.473,313.473,0,0,0,279.846,60.2Z" style="fill:#93573d"/></svg>