<svg id="Flat" xmlns="http://www.w3.org/2000/svg" viewBox="0 0 512 512"><path d="M256,48C141.125,48,48,141.125,48,256s93.125,208,208,208,208-93.125,208-208S370.875,48,256,48Zm0,352A144,144,0,1,1,400,256,144,144,0,0,1,256,400Z" style="fill:#ab6647"/><path d="M256,112a8,8,0,0,1-8-8V56a8,8,0,0,1,16,0v48A8,8,0,0,1,256,112Z" style="fill:#8a523a"/><path d="M256,464a8,8,0,0,1-8-8V408a8,8,0,0,1,16,0v48A8,8,0,0,1,256,464Z" style="fill:#8a523a"/><path d="M114.579,405.421a8,8,0,0,1-5.657-13.656l33.94-33.941a8,8,0,0,1,11.315,11.313l-33.941,33.941A7.974,7.974,0,0,1,114.579,405.421Z" style="fill:#8a523a"/><path d="M104,264H56a8,8,0,0,1,0-16h48a8,8,0,0,1,0,16Z" style="fill:#8a523a"/><path d="M148.52,156.52a7.975,7.975,0,0,1-5.658-2.344l-33.94-33.941a8,8,0,0,1,11.314-11.313l33.941,33.941a8,8,0,0,1-5.657,13.657Z" style="fill:#8a523a"/><path d="M363.48,156.52a8,8,0,0,1-5.657-13.657l33.941-33.941a8,8,0,1,1,11.314,11.313l-33.94,33.941A7.979,7.979,0,0,1,363.48,156.52Z" style="fill:#8a523a"/><path d="M456,264H408a8,8,0,0,1,0-16h48a8,8,0,0,1,0,16Z" style="fill:#8a523a"/><path d="M397.421,405.421a7.97,7.97,0,0,1-5.657-2.343l-33.941-33.941a8,8,0,0,1,11.315-11.313l33.94,33.941a8,8,0,0,1-5.657,13.656Z" style="fill:#8a523a"/><circle cx="256" cy="256" r="152" style="fill:#93573d"/><path d="M379.95,168H132.05a151.244,151.244,0,0,1,13.1-16h221.7A151.244,151.244,0,0,1,379.95,168Z" style="fill:#8a523a"/><path d="M406.11,232H105.89a150.959,150.959,0,0,1,3.42-16H402.69A150.959,150.959,0,0,1,406.11,232Z" style="fill:#8a523a"/><path d="M406.11,280a150.959,150.959,0,0,1-3.42,16H109.31a150.959,150.959,0,0,1-3.42-16Z" style="fill:#8a523a"/><path d="M379.95,344a151.244,151.244,0,0,1-13.1,16H145.15a151.244,151.244,0,0,1-13.1-16Z" style="fill:#8a523a"/><circle cx="256" cy="352" r="24" style="fill:#ab6647"/><path d="M256,24C127.87,24,24,127.87,24,256S127.87,488,256,488,488,384.13,488,256,384.13,24,256,24Zm0,432C145.543,456,56,366.457,56,256S145.543,56,256,56s200,89.543,200,200S366.457,456,256,456Z" style="fill:#8a523a"/></svg>