<svg id="Flat" xmlns="http://www.w3.org/2000/svg" viewBox="0 0 512 512"><path d="M408,88H104S64,176,64,264s40,160,40,160v32s64,32,152,32,152-32,152-32V424s40-72,40-160S408,88,408,88Z" style="fill:#ab6647"/><ellipse cx="256" cy="72" rx="112" ry="32" style="fill:#ab6647"/><path d="M104,88V56s64-32,152-32S408,56,408,56V88S336,56,256,56,104,88,104,88Z" style="fill:#8a523a"/><path d="M256,464a8,8,0,0,1-8-8V120a8,8,0,0,1,16,0V456A8,8,0,0,1,256,464Z" style="fill:#8a523a"/><path d="M168,464a8,8,0,0,1-7.65-5.672C150.934,427.416,136,351.664,136,280c0-80.954,17.091-151.42,22.33-171.088a8,8,0,1,1,15.461,4.117C168.679,132.223,152,200.99,152,280c0,69.929,14.508,143.636,23.653,173.67A8.006,8.006,0,0,1,168,464Z" style="fill:#8a523a"/><path d="M344,464a8.007,8.007,0,0,1-7.656-10.333C345.492,423.638,360,349.932,360,280c0-79.012-16.679-147.777-21.79-166.971a8,8,0,0,1,15.461-4.117C358.909,128.58,376,199.045,376,280c0,71.667-14.934,147.417-24.347,178.331A8,8,0,0,1,344,464Z" style="fill:#8a523a"/><path d="M439.11,186.02C355.01,216,256,216,256,216s-99.01,0-183.11-29.98c2.27-10.74,4.84-20.99,7.49-30.54C110.28,167.29,168.1,184,256,184s145.72-16.71,175.62-28.52C434.27,165.03,436.84,175.28,439.11,186.02Z" style="fill:#93573d"/><path d="M441.51,327.33a377.791,377.791,0,0,1-9.42,37.11C349.6,392,256,392,256,392s-93.6,0-176.09-27.56a377.791,377.791,0,0,1-9.42-37.11C96.34,338.87,157.15,360,256,360S415.66,338.87,441.51,327.33Z" style="fill:#93573d"/><path d="M408,424v32s-64,32-152,32-152-32-152-32V424s72,32,152,32S408,424,408,424Z" style="fill:#93573d"/><path d="M408,56V88s-64,32-152,32S104,88,104,88V56s72,32,152,32S408,56,408,56Z" style="fill:#93573d"/></svg>