<svg id="Flat" xmlns="http://www.w3.org/2000/svg" viewBox="0 0 512 512"><path d="M80,264s-16-16-16-56l24,8s0-40,48-56v32s32-8,64,0c0,0-8,40-32,56l32,16s-24,40-72,8v32S96,288,80,264Z" style="fill:#818a55"/><path d="M151.519,221.266a8,8,0,0,0-10.253-4.785c-26.539,9.651-61.538,28.629-77.561,64.236a88.82,88.82,0,0,0-7.715,30.254A109.368,109.368,0,0,0,30.764,312.1,8,8,0,0,0,33.236,327.9c49.619-7.757,69.223,23.254,71.174,26.626a8.153,8.153,0,0,0,.364.9,8.02,8.02,0,0,0,14.859-5.947c-.979-3.168-8.075-14.864-22.283-24.521a81.155,81.155,0,0,0-25.477-11.4,72.551,72.551,0,0,1,6.8-27.112c11.183-24.1,34.082-42.579,68.059-54.934A8,8,0,0,0,151.519,221.266Z" style="fill:#ab6647"/><path d="M384,232V472a16,16,0,0,1-16,16H240a16,16,0,0,1-16-16V232c0-56,56-80,56-80V72h-8V24h64V72h-8v80S384,176,384,232Z" style="fill:#4f5659"/><path d="M424,460.664V360a8,8,0,0,0-16,0V460.664A81.156,81.156,0,0,1,368,488h96A81.156,81.156,0,0,1,424,460.664Z" style="fill:#e8edf1"/><rect x="280" y="120" width="48" height="32" style="fill:#6a7073"/><rect x="256" y="280" width="96" height="144" style="fill:#6a7073"/><path d="M480,296c0,48-40,72-64,72s-64-24-64-72,24-112,24-112h80S480,248,480,296Z" style="fill:#e8edf1"/><path d="M480,296c0,48-40,72-64,72s-64-24-64-72a221.508,221.508,0,0,1,3.73-37.64l22.042-6.3a32,32,0,0,1,26.54,4.144L424.549,269.7a32,32,0,0,0,32.061,2l20.21-10.105A214.787,214.787,0,0,1,480,296Z" style="fill:#931237"/><circle cx="256" cy="456" r="32" style="fill:#931237"/><circle cx="192" cy="456" r="32" style="fill:#931237"/><circle cx="224" cy="400" r="32" style="fill:#720e2a"/><circle cx="160" cy="400" r="32" style="fill:#720e2a"/><circle cx="128" cy="456" r="32" style="fill:#931237"/><circle cx="96" cy="400" r="32" style="fill:#720e2a"/><circle cx="192" cy="344" r="32" style="fill:#931237"/><circle cx="128" cy="344" r="32" style="fill:#931237"/><path d="M256,256a8,8,0,0,1-8-8V232c0-17.3,8.039-33.248,23.249-46.109a8,8,0,0,1,10.33,12.218C269.915,207.973,264,219.375,264,232v16A8,8,0,0,1,256,256Z" style="fill:#6a7073"/><polygon points="336 24 336 72 328 72 328 120 280 120 280 72 272 72 272 24 336 24" style="fill:#931237"/></svg>