<svg id="Flat" xmlns="http://www.w3.org/2000/svg" viewBox="0 0 512 512"><path d="M312,320V472H200V320c0-48,24-56,24-56V184h64v80S312,272,312,320Z" style="fill:#4f5659"/><path d="M152,320V472H40V320c0-48,24-56,24-56V184h64v80S152,272,152,320Z" style="fill:#4f5659"/><path d="M96,416a8,8,0,0,1-8-8V200a8,8,0,0,1,16,0V408A8,8,0,0,1,96,416Z" style="fill:#cfd1d3"/><path d="M256,376a8,8,0,0,1-8-8V200a8,8,0,0,1,16,0V368A8,8,0,0,1,256,376Z" style="fill:#cfd1d3"/><path d="M472,320V472H360V320c0-48,24-56,24-56V184h64v80S472,272,472,320Z" style="fill:#4f5659"/><path d="M416,344a8,8,0,0,1-8-8V200a8,8,0,0,1,16,0V336A8,8,0,0,1,416,344Z" style="fill:#cfd1d3"/><path d="M152,384v72H40V392l15.39-7.695a32,32,0,0,1,32.061,2l13.711,9.14a32,32,0,0,0,36.95-1.025Z" style="fill:#931237"/><rect x="32" y="456" width="128" height="32" style="fill:#b5b8b9"/><path d="M312,347.074V456H200V355.074l15.39-7.7a32,32,0,0,1,32.061,2l13.711,9.141a32,32,0,0,0,36.95-1.026Z" style="fill:#931237"/><rect x="192" y="456" width="128" height="32" style="fill:#b5b8b9"/><path d="M472,311.184V456H360V319.184l15.39-7.7a32,32,0,0,1,32.061,2l13.711,9.141a32,32,0,0,0,36.95-1.026Z" style="fill:#931237"/><rect x="352" y="456" width="128" height="32" style="fill:#b5b8b9"/><rect x="40" y="24" width="112" height="176" style="fill:#d9dbdd"/><rect x="200" y="24" width="112" height="176" style="fill:#d9dbdd"/><rect x="360" y="24" width="112" height="176" style="fill:#d9dbdd"/><rect x="392" y="24" width="48" height="128" style="fill:#d9dbdd"/><rect x="40" y="24" width="32" height="128" style="fill:#cfd1d3"/><rect x="120" y="24" width="32" height="128" style="fill:#cfd1d3"/><rect x="72" y="24" width="48" height="128" style="fill:#d9dbdd"/><rect x="72" y="24" width="48" height="32" style="fill:#b5b8b9"/><rect x="72" y="120" width="48" height="32" style="fill:#b5b8b9"/><rect x="200" y="24" width="32" height="128" style="fill:#cfd1d3"/><rect x="280" y="24" width="32" height="128" style="fill:#cfd1d3"/><rect x="232" y="24" width="48" height="128" style="fill:#d9dbdd"/><rect x="232" y="24" width="48" height="32" style="fill:#b5b8b9"/><rect x="232" y="120" width="48" height="32" style="fill:#b5b8b9"/><rect x="360" y="24" width="32" height="128" style="fill:#cfd1d3"/><rect x="440" y="24" width="32" height="128" style="fill:#cfd1d3"/><rect x="392" y="24" width="48" height="32" style="fill:#b5b8b9"/><rect x="392" y="120" width="48" height="32" style="fill:#b5b8b9"/></svg>