<svg id="Flat" xmlns="http://www.w3.org/2000/svg" viewBox="0 0 512 512"><path d="M456,368a24,24,0,0,0,0,48v40H200V424a40,40,0,0,0,0-80V312h48a24,24,0,0,0,48,0H456Z" style="fill:#f3db70"/><circle cx="304" cy="392" r="24" style="fill:#e4bc43"/><path d="M352,320a32,32,0,1,0,62.99-8H353.01A32,32,0,0,0,352,320Z" style="fill:#e4bc43"/><circle cx="384" cy="408" r="16" style="fill:#e4bc43"/><path d="M152,456H488a0,0,0,0,1,0,0v0a32,32,0,0,1-32,32H152a0,0,0,0,1,0,0V456A0,0,0,0,1,152,456Z" style="fill:#ab6647"/><path d="M136,232V472a16,16,0,0,0,16,16H280a16,16,0,0,0,16-16V232c0-56-56-80-56-80V72h8V24H184V72h8v80S136,176,136,232Z" style="fill:#4f5659"/><rect x="192" y="120" width="48" height="32" transform="translate(432 272) rotate(-180)" style="fill:#6a7073"/><rect x="168" y="280" width="96" height="144" transform="translate(432 704) rotate(-180)" style="fill:#6a7073"/><path d="M304,460.664V360a8,8,0,0,0-16,0V460.664A81.156,81.156,0,0,1,248,488h96A81.156,81.156,0,0,1,304,460.664Z" style="fill:#e8edf1"/><ellipse cx="112" cy="336" rx="24" ry="32" transform="translate(-204.784 177.608) rotate(-45)" style="fill:#818a55"/><circle cx="100.686" cy="324.686" r="8" style="fill:#9fa969"/><ellipse cx="144" cy="384" rx="24" ry="32" style="fill:#818a55"/><circle cx="144" cy="368" r="8" style="fill:#9fa969"/><ellipse cx="83.714" cy="384" rx="32" ry="24" transform="translate(-247.01 171.666) rotate(-45)" style="fill:#818a55"/><circle cx="95.028" cy="372.686" r="8" style="fill:#9fa969"/><path d="M24,400c0,44.183,36.119,80,88,80,51.545,0,88-35.817,88-80Z" style="fill:#ab6647"/><rect x="48" y="456" width="128" height="32" style="fill:#93573d"/><path d="M168,256a8,8,0,0,1-8-8V232c0-17.3,8.039-33.248,23.249-46.109a8,8,0,0,1,10.33,12.218C181.915,207.973,176,219.376,176,232v16A8,8,0,0,1,168,256Z" style="fill:#6a7073"/><path d="M232,296c0,48,40,72,64,72s64-24,64-72-24-112-24-112H256S232,248,232,296Z" style="fill:#e8edf1"/><path d="M232,296c0,48,40,72,64,72s64-24,64-72a221.508,221.508,0,0,0-3.73-37.64l-22.042-6.3a32,32,0,0,0-26.54,4.144L287.451,269.7a32,32,0,0,1-32.061,2L235.18,261.59A214.787,214.787,0,0,0,232,296Z" style="fill:#931237"/><polygon points="248 24 248 72 240 72 240 120 192 120 192 72 184 72 184 24 248 24" style="fill:#931237"/></svg>