<svg id="Flat" xmlns="http://www.w3.org/2000/svg" viewBox="0 0 512 512"><path d="M425.377,408.016l-24.625-67.658c-5.472-15.035,8.872-45.8,8.872-45.8l-75.175,27.361s30.761,14.344,36.233,29.379l24.625,67.658C406.252,449.031,369.355,488,369.355,488l120.281-43.778S436.322,438.086,425.377,408.016Z" style="fill:#e8edf1"/><path d="M354.211,118.922,264,151.756s.027,93.637,10.972,123.707a80,80,0,0,0,150.351-54.722C414.378,190.67,354.211,118.922,354.211,118.922Z" style="fill:#e8edf1"/><path d="M428.52,232H424c-24,0-40,32-72,32s-40-40-80-40h-5.24c-2.75-35.03-2.76-72.24-2.76-72.24l90.21-32.84s60.17,71.75,71.11,101.82A80.4,80.4,0,0,1,428.52,232Z" style="fill:#e8edf1"/><path d="M377.51,323.28a80,80,0,0,1-102.54-47.82c-4.04-11.12-6.6-30.92-8.21-51.46H272c40,0,48,40,80,40s48-32,72-32h4.52A80.018,80.018,0,0,1,377.51,323.28Z" style="fill:#931237"/><path d="M255.922,56a8,8,0,0,1-8-8V24a8,8,0,0,1,16,0V48A8,8,0,0,1,255.922,56Z" style="fill:#d9dbdd"/><path d="M215.93,72a7.993,7.993,0,0,1-6.664-3.563l-16-24a8,8,0,0,1,13.313-8.875l16,24A8,8,0,0,1,215.93,72Z" style="fill:#d9dbdd"/><path d="M295.915,72a8,8,0,0,1-6.649-12.438l16-24a8,8,0,1,1,13.313,8.875l-16,24A7.994,7.994,0,0,1,295.915,72Z" style="fill:#d9dbdd"/><path d="M116.692,418.96,141.317,351.3c5.473-15.035,36.234-29.379,36.234-29.379l-75.176-27.361s14.344,30.761,8.872,45.8L86.622,408.016c-10.945,30.07-64.259,36.2-64.259,36.2L142.644,488S105.747,449.03,116.692,418.96Z" style="fill:#e8edf1"/><path d="M248,151.756l-90.21-32.834S97.622,190.67,86.677,220.74a80,80,0,0,0,150.351,54.724C247.972,245.393,248,151.756,248,151.756Z" style="fill:#e8edf1"/><path d="M245.24,224c-1.61,20.54-4.17,40.34-8.21,51.46A80.005,80.005,0,0,1,83.48,232H88c24,0,40,32,72,32s40-40,80-40Z" style="fill:#931237"/></svg>