<svg id="Flat" xmlns="http://www.w3.org/2000/svg" viewBox="0 0 512 512"><path d="M448,368a24,24,0,0,0,0,48v40H192V424a40,40,0,0,0,0-80V312h48a24,24,0,0,0,48,0H448Z" style="fill:#f3db70"/><path d="M136,456H488a0,0,0,0,1,0,0v0a32,32,0,0,1-32,32H136a0,0,0,0,1,0,0V456A0,0,0,0,1,136,456Z" style="fill:#ab6647"/><path d="M136,432V288c0-16,24-40,24-40H80s24,24,24,40V432c0,32-64,56-64,56H200S136,464,136,432Z" style="fill:#e8edf1"/><path d="M24,168a96,96,0,0,0,192,0c0-56-40-144-40-144H64S24,112,24,168Z" style="fill:#e8edf1"/><path d="M216,168a96,96,0,0,1-192,0,168.948,168.948,0,0,1,2.21-25.59C33.85,137.06,59.77,120,80,120c24,0,56,40,80,40,20.58,0,47.04-11.76,54.16-15.11A162.75,162.75,0,0,1,216,168Z" style="fill:#931237"/><circle cx="296" cy="392" r="24" style="fill:#e4bc43"/><path d="M344,320a32,32,0,1,0,62.99-8H345.01A32,32,0,0,0,344,320Z" style="fill:#e4bc43"/><circle cx="376" cy="408" r="16" style="fill:#e4bc43"/></svg>