<svg id="Flat" xmlns="http://www.w3.org/2000/svg" viewBox="0 0 512 512"><path d="M272,32H48A24,24,0,0,0,24,56v80a24,24,0,0,0,23.846,24V344a24,24,0,0,0,24,24h176a24,24,0,0,0,24-24V160H272a24,24,0,0,0,24-24V56A24,24,0,0,0,272,32Z" style="fill:#ab6647"/><path d="M95.846,279.846a8,8,0,0,1-8-8v-72a8,8,0,0,1,16,0v72A8,8,0,0,1,95.846,279.846Z" style="fill:#93573d"/><path d="M87.846,367.846v-48a8,8,0,0,1,16,0v48Z" style="fill:#93573d"/><path d="M215.846,367.984l.154-80A8,8,0,0,1,224,280h.016A8,8,0,0,1,232,288.016l-.154,80Z" style="fill:#93573d"/><path d="M159.846,336h-.017a8,8,0,0,1-7.983-8.017l.154-72A8,8,0,0,1,160,248h.017A8,8,0,0,1,168,256.017l-.154,72A8,8,0,0,1,159.846,336Z" style="fill:#93573d"/><path d="M264,72H56a8,8,0,0,1,0-16H264a8,8,0,0,1,0,16Z" style="fill:#93573d"/><path d="M192,168H48a8,8,0,0,1,0-16H192a8,8,0,0,1,0,16Z" style="fill:#93573d"/><path d="M272,168H240a8,8,0,0,1,0-16h32a8,8,0,0,1,0,16Z" style="fill:#93573d"/><path d="M72,128a8,8,0,0,1-8-8V96a8,8,0,0,1,16,0v24A8,8,0,0,1,72,128Z" style="fill:#93573d"/><path d="M120,168a8,8,0,0,1-8-8V136a8,8,0,0,1,16,0v24A8,8,0,0,1,120,168Z" style="fill:#93573d"/><path d="M184,120a8,8,0,0,1-8-8V96a8,8,0,0,1,16,0v16A8,8,0,0,1,184,120Z" style="fill:#93573d"/><path d="M248,136a8,8,0,0,1-8-8V112a8,8,0,0,1,16,0v16A8,8,0,0,1,248,136Z" style="fill:#93573d"/><path d="M224,232a8,8,0,0,1-8-8V192a8,8,0,0,1,16,0v32A8,8,0,0,1,224,232Z" style="fill:#93573d"/><path d="M488,456V232a24,24,0,0,0-24-24H384a24,24,0,0,0-24,23.846H176a24,24,0,0,0-24,24v176a24,24,0,0,0,24,24H360V456a24,24,0,0,0,24,24h80A24,24,0,0,0,488,456Z" style="fill:#c2856c"/><path d="M320.154,287.846h-72a8,8,0,0,1,0-16h72a8,8,0,0,1,0,16Z" style="fill:#ab6647"/><path d="M152.154,271.846h48a8,8,0,0,1,0,16h-48Z" style="fill:#ab6647"/><path d="M152,399.846h.016l80,.154A8,8,0,0,1,232,416h-.016l-80-.154Z" style="fill:#ab6647"/><path d="M272,352h-.017l-72-.154a8,8,0,0,1,.017-16h.017l72,.154A8,8,0,0,1,272,352Z" style="fill:#ab6647"/><path d="M456,456a8,8,0,0,1-8-8V240a8,8,0,0,1,16,0V448A8,8,0,0,1,456,456Z" style="fill:#ab6647"/><path d="M360,384a8,8,0,0,1-8-8V232a8,8,0,0,1,16,0V376A8,8,0,0,1,360,384Z" style="fill:#ab6647"/><path d="M360,464a8,8,0,0,1-8-8V424a8,8,0,0,1,16,0v32A8,8,0,0,1,360,464Z" style="fill:#ab6647"/><path d="M424,264H400a8,8,0,0,1,0-16h24a8,8,0,0,1,0,16Z" style="fill:#ab6647"/><path d="M384,312H360a8,8,0,0,1,0-16h24a8,8,0,0,1,0,16Z" style="fill:#ab6647"/><path d="M424,376H408a8,8,0,0,1,0-16h16a8,8,0,0,1,0,16Z" style="fill:#ab6647"/><path d="M408,440H392a8,8,0,0,1,0-16h16a8,8,0,0,1,0,16Z" style="fill:#ab6647"/><path d="M328,416H296a8,8,0,0,1,0-16h32a8,8,0,0,1,0,16Z" style="fill:#ab6647"/></svg>