<svg id="Flat" xmlns="http://www.w3.org/2000/svg" viewBox="0 0 512 512"><path d="M383.846,255.846h-16a8,8,0,0,1,0-16h16a8,8,0,0,1,0,16Z" style="fill:#b5b8b9"/><path d="M319.846,207.846a8,8,0,0,1-8-8v-16a8,8,0,0,1,16,0v16A8,8,0,0,1,319.846,207.846Z" style="fill:#b5b8b9"/><path d="M353.787,221.9a8,8,0,0,1-5.657-13.656l11.314-11.314a8,8,0,0,1,11.313,11.314l-11.314,11.313A7.974,7.974,0,0,1,353.787,221.9Z" style="fill:#b5b8b9"/><path d="M143.846,255.846h-16a8,8,0,0,1,0-16h16a8,8,0,0,1,0,16Z" style="fill:#b5b8b9"/><path d="M191.846,207.846a8,8,0,0,1-8-8v-16a8,8,0,0,1,16,0v16A8,8,0,0,1,191.846,207.846Z" style="fill:#b5b8b9"/><path d="M157.9,221.9a7.974,7.974,0,0,1-5.656-2.343l-11.314-11.313a8,8,0,0,1,11.314-11.314l11.313,11.314A8,8,0,0,1,157.9,221.9Z" style="fill:#b5b8b9"/><path d="M255.839,431.848a8,8,0,0,1-7.149-11.58l10.843-21.685a7.991,7.991,0,0,0-1.5-9.235l-15.691-15.691a23.968,23.968,0,0,1-4.495-27.7l10.842-21.685A8,8,0,0,1,263,331.423l-10.843,21.685a7.991,7.991,0,0,0,1.5,9.235l15.691,15.691a23.969,23.969,0,0,1,4.5,27.7L263,427.423A8,8,0,0,1,255.839,431.848Z" style="fill:#cfd1d3"/><path d="M296,432a8,8,0,0,1-8-8V296a8,8,0,0,1,16,0V424A8,8,0,0,1,296,432Z" style="fill:#e0e2e5"/><path d="M216,432a8,8,0,0,1-8-8V296a8,8,0,0,1,16,0V424A8,8,0,0,1,216,432Z" style="fill:#e0e2e5"/><path d="M239.85,247.85v48h-32v96c-48,0-80,96-80,96-8-88,48-128,48-128V293.1a48,48,0,1,1,64-45.25Z" style="fill:#cfd1d3"/><path d="M383.85,487.85s-32-96-80-96v-96h-32v-48a48,48,0,1,1,64,45.25v66.75S391.85,399.85,383.85,487.85Z" style="fill:#cfd1d3"/><rect x="239.846" y="87.846" width="32" height="144" style="fill:#cfd1d3"/><path d="M272,152H240a8,8,0,0,1,0-16h32a8,8,0,0,1,0,16Z" style="fill:#b5b8b9"/><path d="M272,184H240a8,8,0,0,1,0-16h32a8,8,0,0,1,0,16Z" style="fill:#b5b8b9"/><rect x="239.846" y="231.846" width="32" height="64" style="fill:#e0e2e5"/><path d="M239.846,231.846h-48a16,16,0,0,0-16,16h0a16,16,0,0,0,16,16h16v32h32Z" style="fill:#b5b8b9"/><path d="M271.846,231.846h48a16,16,0,0,1,16,16h0a16,16,0,0,1-16,16h-16v32h-32Z" style="fill:#b5b8b9"/><polygon points="303.846 423.845 207.846 423.845 191.846 455.845 191.846 487.845 319.846 487.845 319.846 455.845 303.846 423.845" style="fill:#e0e2e5"/><polygon points="191.846 455.846 207.846 423.846 303.846 423.846 319.846 455.846 191.846 455.846" style="fill:#b5b8b9"/><rect x="239.846" y="295.846" width="32" height="32" style="fill:#b5b8b9"/><path d="M192,24l16.154,64.155v16h96v-16L320,24Zm48.154,64.155L232,56h48l-7.846,32.155Z" style="fill:#b5b8b9"/></svg>