<svg id="Flat" xmlns="http://www.w3.org/2000/svg" viewBox="0 0 512 512"><polygon points="32 248 32 488 64 488 80 408 176 408 176 392 304 392 304 360 415.385 360 440 488 472 488 472 280 480 280 480 248 32 248" style="fill:#d9dbdd"/><rect x="112" y="280" width="320" height="80" style="fill:#c2c5c6"/><polygon points="464 216 464 248 208 248 208 184 440 184 464 216" style="fill:#cfd1d3"/><path d="M128.682,63.736a8,8,0,0,1-7.987-7.651c-.9-20.68,18.885-30.818,19.727-31.239a8,8,0,0,1,7.2,14.29c-.276.145-11.385,6.082-10.94,16.25a8,8,0,0,1-7.643,8.342C128.918,63.734,128.8,63.736,128.682,63.736Z" style="fill:#ab6647"/><polygon points="32 408 32 488 64 488 80 408 32 408" style="fill:#cfd1d3"/><rect x="112" y="248" width="368" height="32" style="fill:#b5b8b9"/><rect x="112" y="360" width="64" height="48" style="fill:#b5b8b9"/><rect x="176" y="360" width="32" height="32" style="fill:#cfd1d3"/><rect x="208" y="360" width="96" height="32" style="fill:#b5b8b9"/><polygon points="120 248 32 184 32 152 224 152 224 248 120 248" style="fill:#c2c5c6"/><path d="M168,184a8,8,0,0,1-8,8H43l-11-8v-8H160A8,8,0,0,1,168,184Z" style="fill:#b5b8b9"/><path d="M224,192H192a8,8,0,0,1,0-16h32Z" style="fill:#b5b8b9"/><path d="M464,216v8H424a8,8,0,0,1,0-16h34Z" style="fill:#b5b8b9"/><path d="M224,208H392a8,8,0,0,1,0,16H224Z" style="fill:#b5b8b9"/><circle cx="96" cy="64" r="16" style="fill:#931237"/><circle cx="128" cy="64" r="16" style="fill:#931237"/><circle cx="160" cy="64" r="16" style="fill:#931237"/><circle cx="112" cy="96" r="16" style="fill:#720e2a"/><circle cx="144" cy="96" r="16" style="fill:#720e2a"/><circle cx="128" cy="128" r="16" style="fill:#931237"/><path d="M248,432a16,16,0,0,1-32,0c0-24,16-32,16-32S248,408,248,432Z" style="fill:#931237"/><path d="M304,472a16,16,0,0,1-32,0c0-24,16-32,16-32S304,448,304,472Z" style="fill:#931237"/><polygon points="472 280 472 488 440 488 400 280 472 280" style="fill:#cfd1d3"/></svg>