<svg id="Flat" xmlns="http://www.w3.org/2000/svg" viewBox="0 0 512 512"><path d="M408,305.869V488H104V305.869a32,32,0,0,1,25.295-31.289L216,256h80l86.7,18.58A32,32,0,0,1,408,305.869Z" style="fill:#4f5659"/><path d="M296,192v64s0,24-40,24-40-24-40-24V192Z" style="fill:#deb89a"/><path d="M264,232H248a64,64,0,0,1-64-64V88l72-16,72,16v80A64,64,0,0,1,264,232Z" style="fill:#eec5a5"/><path d="M232,80s32,48,96,48V72a48,48,0,0,0-48-48H232a48,48,0,0,0-48,48v56S224,120,232,80Z" style="fill:#ab6647"/><path d="M264,459.187V400a8,8,0,0,0-16,0v59.187C235.647,473.263,216,488,216,488h80S276.353,473.263,264,459.187Z" style="fill:#e8edf1"/><path d="M112,459.187V400a8,8,0,0,0-16,0v59.187C83.647,473.263,64,488,64,488h80S124.353,473.263,112,459.187Z" style="fill:#e8edf1"/><path d="M416,459.187V400a8,8,0,0,0-16,0v59.187C387.647,473.263,368,488,368,488h80S428.353,473.263,416,459.187Z" style="fill:#e8edf1"/><path d="M80,312h48s16,40,16,56a40,40,0,0,1-80,0C64,352,80,312,80,312Z" style="fill:#e8edf1"/><path d="M232,312h48s16,40,16,56a40,40,0,0,1-80,0C216,352,232,312,232,312Z" style="fill:#e8edf1"/><path d="M384,312h48s16,40,16,56a40,40,0,0,1-80,0C368,352,384,312,384,312Z" style="fill:#e8edf1"/><path d="M448,368a40,40,0,0,1-80,0,47.38,47.38,0,0,1,.86-8h78.28A47.38,47.38,0,0,1,448,368Z" style="fill:#931237"/><path d="M296,368a40,40,0,0,1-80,0,47.38,47.38,0,0,1,.86-8h78.28A47.38,47.38,0,0,1,296,368Z" style="fill:#931237"/><path d="M144,368a40,40,0,0,1-80,0,47.38,47.38,0,0,1,.86-8h78.28A47.38,47.38,0,0,1,144,368Z" style="fill:#931237"/></svg>