<svg id="Flat" xmlns="http://www.w3.org/2000/svg" viewBox="0 0 512 512"><polygon points="408 136 256 41 104 136 24 136 24 472 488 472 488 136 408 136" style="fill:#ab6647"/><polygon points="24 168 24 136 104 136 256 41 408 136 488 136 488 168 400 168 256 81 112 168 24 168" style="fill:#724b3b"/><path d="M232,328h48a64,64,0,0,1,64,64v80a0,0,0,0,1,0,0H168a0,0,0,0,1,0,0V392a64,64,0,0,1,64-64Z" style="fill:#724b3b"/><path d="M232,360h48a32,32,0,0,1,32,32v80a0,0,0,0,1,0,0H200a0,0,0,0,1,0,0V392a32,32,0,0,1,32-32Z" style="fill:#ab6647"/><rect x="72" y="344" width="48" height="80" style="fill:#724b3b"/><rect x="392" y="344" width="48" height="80" style="fill:#724b3b"/><path d="M72,216h0a16,16,0,0,1,16,16v48a0,0,0,0,1,0,0H56a0,0,0,0,1,0,0V232a16,16,0,0,1,16-16Z" style="fill:#724b3b"/><path d="M136,216h0a16,16,0,0,1,16,16v48a0,0,0,0,1,0,0H120a0,0,0,0,1,0,0V232A16,16,0,0,1,136,216Z" style="fill:#724b3b"/><path d="M376,208h0a16,16,0,0,1,16,16v48a0,0,0,0,1,0,0H360a0,0,0,0,1,0,0V224A16,16,0,0,1,376,208Z" style="fill:#724b3b"/><path d="M440,208h0a16,16,0,0,1,16,16v48a0,0,0,0,1,0,0H424a0,0,0,0,1,0,0V224A16,16,0,0,1,440,208Z" style="fill:#724b3b"/><path d="M288,176a23.9,23.9,0,0,0-16,6.131,24.091,24.091,0,0,0-4.851-3.374c1.121-5.144,12.174-39.532,12.231-39.669a8,8,0,0,0-14.759-6.179c-.127.3-1.173,2.82-2.689,6.942C254.109,130.17,245.832,128,240,128H216a8,8,0,0,0-7.845,9.569c.17.85,4.354,20.913,21.04,29.952a35.827,35.827,0,0,0,17.322,4.276,44.87,44.87,0,0,0,5.9-.418q-.591,2.507-1.139,5.09A23.939,23.939,0,0,0,240,182.131a23.992,23.992,0,1,0-22.3,41.023,23.977,23.977,0,0,0,16,32,24,24,0,1,0,44.606,0,23.977,23.977,0,0,0,16-32A24,24,0,0,0,288,176Zm-51.106-22.506A24.145,24.145,0,0,1,227.672,144H240c5.334,0,9.939,5.716,12.974,11.065C246.69,156.38,241.305,155.857,236.894,153.494ZM256,192a8,8,0,1,1-8,8A8.009,8.009,0,0,1,256,192Zm-32,0a8,8,0,1,1-8,8A8.009,8.009,0,0,1,224,192Zm16,32a8,8,0,1,1-8,8A8.009,8.009,0,0,1,240,224Zm16,48a8,8,0,1,1,8-8A8.009,8.009,0,0,1,256,272Zm16-32a8,8,0,1,1,8-8A8.009,8.009,0,0,1,272,240Zm16-32a8,8,0,1,1,8-8A8.009,8.009,0,0,1,288,208Z" style="fill:#724b3b"/></svg>