<svg id="Flat" xmlns="http://www.w3.org/2000/svg" viewBox="0 0 512 512"><path d="M456,336H88V144H24V368a32,32,0,0,0,32,32H184v80H488V368A32,32,0,0,0,456,336Z" style="fill:#4f5659"/><rect x="88" y="144" width="16" height="72" style="fill:#ab6647"/><rect x="280" y="272" width="64" height="64" style="fill:#deb89a"/><path d="M272,32h80a32,32,0,0,1,32,32v64a0,0,0,0,1,0,0H240a0,0,0,0,1,0,0V64A32,32,0,0,1,272,32Z" style="fill:#ab6647"/><path d="M240,144H384a0,0,0,0,1,0,0v80a64,64,0,0,1-64,64H304a64,64,0,0,1-64-64V144A0,0,0,0,1,240,144Z" style="fill:#eec5a5"/><path d="M288,152s32,48,96,48V144a48,48,0,0,0-48-48H288a48,48,0,0,0-48,48v56S280,192,288,152Z" style="fill:#4f5659"/><path d="M448,136c0,24-64,32-64,32s-8-24-72-24-72,24-72,24-64-8-64-32c0-32,48-40,136-40S448,104,448,136Z" style="fill:#93573d"/><polygon points="280 312 312 336 288 368 248 336 280 312" style="fill:#6a7073"/><rect x="184" y="400" width="256" height="80" style="fill:#93573d"/><path d="M184,336h48a0,0,0,0,1,0,0v80a16,16,0,0,1-16,16H200a16,16,0,0,1-16-16V336A0,0,0,0,1,184,336Z" style="fill:#ab6647"/><polygon points="344 312 312 336 336 368 376 336 344 312" style="fill:#6a7073"/><path d="M408,336h16a16,16,0,0,1,16,16v80a0,0,0,0,1,0,0H392a0,0,0,0,1,0,0V352A16,16,0,0,1,408,336Z" transform="translate(832 768) rotate(-180)" style="fill:#ab6647"/><path d="M24,80h80a32,32,0,0,1,32,32v16a32,32,0,0,1-32,32H24a0,0,0,0,1,0,0V80A0,0,0,0,1,24,80Z" style="fill:#eec5a5"/><path d="M72,80H24L40,48H88V64A16,16,0,0,1,72,80Z" style="fill:#deb89a"/><circle cx="72" cy="216" r="24" style="fill:#931237"/><circle cx="120" cy="216" r="24" style="fill:#931237"/><circle cx="96" cy="256" r="24" style="fill:#720e2a"/><circle cx="144" cy="256" r="24" style="fill:#720e2a"/><circle cx="48" cy="256" r="24" style="fill:#720e2a"/><circle cx="120" cy="296" r="24" style="fill:#931237"/><circle cx="72" cy="296" r="24" style="fill:#931237"/><circle cx="96" cy="336" r="24" style="fill:#720e2a"/></svg>