<svg id="Flat" xmlns="http://www.w3.org/2000/svg" viewBox="0 0 512 512"><polygon points="336 80 336 48 352 48 352 16 160 16 160 48 176 48 176 80 120 128 120 144 392 144 392 128 336 80" style="fill:#cfd1d3"/><polygon points="360 336 288 432 224 432 152 336 360 336" style="fill:#b5b8b9"/><polygon points="120 320 120 488 152 488 176 320 120 320" style="fill:#cfd1d3"/><polygon points="392 320 392 488 360 488 336 320 392 320" style="fill:#cfd1d3"/><rect x="160" y="16" width="192" height="32" style="fill:#cfd1d3"/><rect x="176" y="48" width="160" height="32" style="fill:#b5b8b9"/><path d="M392,128V320s-40,48-136,48-136-48-136-48V128Z" style="fill:#e0e2e5"/><path d="M152,200a8,8,0,0,1-8-8V160a8,8,0,0,1,16,0v32A8,8,0,0,1,152,200Z" style="fill:#b5b8b9"/><path d="M152,312a8,8,0,0,1-8-8V224a8,8,0,0,1,16,0v80A8,8,0,0,1,152,312Z" style="fill:#b5b8b9"/><circle cx="256" cy="248" r="40" style="fill:#cfd1d3"/><path d="M284.284,284.284a7.974,7.974,0,0,1-5.657-2.343l-28.284-28.284a8,8,0,0,1,11.314-11.314l28.284,28.284a8,8,0,0,1-5.657,13.657Z" style="fill:#b5b8b9"/><circle cx="256" cy="432" r="32" style="fill:#e0e2e5"/><path d="M312,440H256a8,8,0,0,1,0-16h56a8,8,0,0,1,0,16Z" style="fill:#cfd1d3"/></svg>