<svg id="Flat" xmlns="http://www.w3.org/2000/svg" viewBox="0 0 512 512"><polygon points="112 120 152 56 256 56 256 88 168 88 152 120 112 120" style="fill:#c2c5c6"/><rect x="224" y="48" width="64" height="48" style="fill:#b5b8b9"/><rect x="208" y="88" width="96" height="48" style="fill:#e0e2e5"/><rect x="88" y="120" width="336" height="368" rx="16" style="fill:#d9dbdd"/><rect x="88" y="168" width="336" height="272" style="fill:#931237"/><path d="M120,208H96a8,8,0,0,1,0-16h24a8,8,0,0,1,0,16Z" style="fill:#b5b8b9"/><path d="M176,208H152a8,8,0,0,1,0-16h24a8,8,0,0,1,0,16Z" style="fill:#b5b8b9"/><path d="M232,208H208a8,8,0,0,1,0-16h24a8,8,0,0,1,0,16Z" style="fill:#b5b8b9"/><path d="M288,208H264a8,8,0,0,1,0-16h24a8,8,0,0,1,0,16Z" style="fill:#b5b8b9"/><path d="M344,208H320a8,8,0,0,1,0-16h24a8,8,0,0,1,0,16Z" style="fill:#b5b8b9"/><path d="M400,208H376a8,8,0,0,1,0-16h24a8,8,0,0,1,0,16Z" style="fill:#b5b8b9"/><path d="M136,416H112a8,8,0,0,1,0-16h24a8,8,0,0,1,0,16Z" style="fill:#b5b8b9"/><path d="M192,416H168a8,8,0,0,1,0-16h24a8,8,0,0,1,0,16Z" style="fill:#b5b8b9"/><path d="M248,416H224a8,8,0,0,1,0-16h24a8,8,0,0,1,0,16Z" style="fill:#b5b8b9"/><path d="M304,416H280a8,8,0,0,1,0-16h24a8,8,0,0,1,0,16Z" style="fill:#b5b8b9"/><path d="M360,416H336a8,8,0,0,1,0-16h24a8,8,0,0,1,0,16Z" style="fill:#b5b8b9"/><path d="M416,416H392a8,8,0,0,1,0-16h24a8,8,0,0,1,0,16Z" style="fill:#b5b8b9"/><rect x="208" y="24" width="96" height="32" style="fill:#e0e2e5"/></svg>