<svg id="Flat" xmlns="http://www.w3.org/2000/svg" viewBox="0 0 512 512"><path d="M78.464,224s-16-16-16-56l24,8s0-40,48-56v32s32-8,64,0c0,0-8,40-32,56l32,16s-24,40-72,8v32S94.464,248,78.464,224Z" style="fill:#818a55"/><path d="M149.982,181.266a8,8,0,0,0-10.253-4.785c-26.539,9.651-61.538,28.629-77.56,64.236a88.8,88.8,0,0,0-7.715,30.254A109.424,109.424,0,0,0,29.228,272.1,8,8,0,1,0,31.7,287.9c49.623-7.756,69.224,23.256,71.174,26.627a8.308,8.308,0,0,0,.366.907,8.02,8.02,0,0,0,14.856-5.954c-.979-3.168-8.078-14.865-22.284-24.519a81.165,81.165,0,0,0-25.475-11.4,72.555,72.555,0,0,1,6.8-27.112c11.183-24.1,34.082-42.579,68.059-54.934A8,8,0,0,0,149.982,181.266Z" style="fill:#ab6647"/><path d="M400,432V304c0-16,24-40,24-40H344s24,24,24,40V432c0,32-64,56-64,56H464S400,464,400,432Z" style="fill:#e8edf1"/><circle cx="286.464" cy="448" r="40" style="fill:#931237"/><circle cx="86.464" cy="376" r="40" style="fill:#720e2a"/><circle cx="206.464" cy="448" r="40" style="fill:#931237"/><circle cx="126.464" cy="448" r="40" style="fill:#931237"/><circle cx="166.464" cy="376" r="40" style="fill:#720e2a"/><circle cx="246.464" cy="376" r="40" style="fill:#720e2a"/><circle cx="206.464" cy="304" r="40" style="fill:#931237"/><circle cx="126.464" cy="304" r="40" style="fill:#931237"/><path d="M288,184a96,96,0,0,0,192,0c0-56-40-144-40-144H328S288,128,288,184Z" style="fill:#e8edf1"/><path d="M480,184a96,96,0,0,1-192,0,168.948,168.948,0,0,1,2.21-25.59C297.85,153.06,323.77,136,344,136c24,0,56,40,80,40,20.58,0,47.04-11.76,54.16-15.11A162.75,162.75,0,0,1,480,184Z" style="fill:#931237"/></svg>