<svg id="Flat" xmlns="http://www.w3.org/2000/svg" viewBox="0 0 512 512"><path d="M264,104s23.193-40-24-72l-8,16s-16-24-56-24V48l-40,8,32,32-24,24s48,16,64,0l-16,24S240,152,264,104Z" style="fill:#818a55"/><path d="M355.469,153.01S379.217,114.432,432,136l-12.181,12.635S448,144,472,184l-24,8,16,40-40-8-8,32s-36.459-25.816-32-48l-16,24S328.8,199.579,355.469,153.01Z" style="fill:#818a55"/><path d="M421.066,185.809c-33.566-27.462-66.751-38.309-98.635-32.234A93.491,93.491,0,0,0,289.476,166.8a100.208,100.208,0,0,0-2.856-25.212c16.252-9.212,36.015-23.116,48.03-41.144.1-.153.2-.306.3-.461a86.118,86.118,0,0,0,35.576-4.4,8,8,0,0,0-5.06-15.18,72.474,72.474,0,0,1-24.621,3.926,40.056,40.056,0,0,0-1.123-16.707c-2.353-8.281-7.259-15.477-13.459-19.743-9.3-6.4-20-5.461-27.924,2.457A21.488,21.488,0,0,0,292.9,72.505c3.11,10.054,12.542,18.662,25.186,23.535-10.171,12.9-25.2,23.313-36.745,30.111-12.751-28.82-39.294-49.6-78.992-61.8a8,8,0,1,0-4.7,15.294c74.935,23.021,78.93,73.317,74.642,101.249l8.426,1.668,5.991,6.307c20.314-17.855,63.466-40.388,124.224,9.32a8,8,0,1,0,10.132-12.382ZM308.186,67.777a6.377,6.377,0,0,1,5.327-8.09,6.578,6.578,0,0,1,3.684,1.379c6.648,4.575,8.534,13.336,7.744,20.469C315.354,78.163,309.625,72.432,308.186,67.777Z" style="fill:#ab6647"/><circle cx="168" cy="232" r="48" style="fill:#7f0f2f"/><circle cx="280" cy="360" r="48" style="fill:#931237"/><circle cx="232" cy="288" r="48" style="fill:#891133"/><circle cx="320" cy="296" r="48" style="fill:#7f0f2f"/><circle cx="288" cy="216" r="48" style="fill:#891133"/><circle cx="224" cy="200" r="48" style="fill:#931237"/><circle cx="144" cy="304" r="48" style="fill:#931237"/><circle cx="160" cy="424" r="48" style="fill:#931237"/><circle cx="192" cy="360" r="48" style="fill:#7f0f2f"/><circle cx="104" cy="368" r="48" style="fill:#891133"/><circle cx="88" cy="440" r="48" style="fill:#7f0f2f"/></svg>