<svg id="Flat" xmlns="http://www.w3.org/2000/svg" viewBox="0 0 512 512"><path d="M416,264s16-16,16-56l-24,8s0-40-48-56v32s-32-8-64,0c0,0,8,40,32,56l-32,16s24,40,72,8v32S400,288,416,264Z" style="fill:#818a55"/><path d="M465.236,312.1a109.372,109.372,0,0,0-25.226-1.126,88.81,88.81,0,0,0-7.715-30.253c-16.023-35.607-51.022-54.585-77.561-64.236a8,8,0,1,0-5.468,15.038c33.977,12.355,56.876,30.837,68.059,54.934a72.575,72.575,0,0,1,6.8,27.112,81.178,81.178,0,0,0-25.477,11.4c-14.208,9.656-21.3,21.353-22.283,24.521a8.051,8.051,0,0,0,4.2,9.74,7.994,7.994,0,0,0,10.659-3.793,8.294,8.294,0,0,0,.365-.9c1.952-3.374,21.555-34.387,71.173-26.625a8,8,0,0,0,2.472-15.808Z" style="fill:#ab6647"/><path d="M48,176v42.564a64,64,0,0,0,22.349,48.593L104,296h56V264H120L92.01,241.608A32,32,0,0,1,80,216.62V176a32,32,0,0,1,32-32h48V112H112A64,64,0,0,0,48,176Z" style="fill:#d9dbdd"/><path d="M64,352c0,32,8,88,48,136H224c40-48,48-104,48-136s-16-72-40-112-32-64-32-72,0-72,64-144c0,0-72,8-128,56v88c0,8-8,32-32,72S64,320,64,352Z" style="fill:#e8edf1"/><path d="M64,352c0,32,8,88,48,136H224c40-48,48-104,48-136,0-2.67-.11-5.4-.33-8.17l-19.05-9.523a64,64,0,0,0-57.239,0L170.2,346.9a64,64,0,0,1-53.235,1.835L66.64,327.77A122.186,122.186,0,0,0,64,352Z" style="fill:#891133"/><circle cx="240" cy="456" r="32" style="fill:#931237"/><circle cx="304" cy="456" r="32" style="fill:#931237"/><circle cx="272" cy="400" r="32" style="fill:#720e2a"/><circle cx="336" cy="400" r="32" style="fill:#720e2a"/><circle cx="368" cy="456" r="32" style="fill:#931237"/><circle cx="400" cy="400" r="32" style="fill:#720e2a"/><circle cx="304" cy="344" r="32" style="fill:#931237"/><circle cx="368" cy="344" r="32" style="fill:#931237"/></svg>