<svg id="Flat" xmlns="http://www.w3.org/2000/svg" viewBox="0 0 512 512"><rect x="24" y="200" width="464" height="32" style="fill:#c2856c"/><circle cx="232" cy="352" r="24" style="fill:#931237"/><circle cx="280" cy="352" r="24" style="fill:#931237"/><circle cx="256" cy="400" r="24" style="fill:#720e2a"/><circle cx="256" cy="304" r="24" style="fill:#720e2a"/><circle cx="304" cy="304" r="24" style="fill:#720e2a"/><circle cx="208" cy="304" r="24" style="fill:#720e2a"/><circle cx="392" cy="352" r="24" style="fill:#931237"/><circle cx="440" cy="352" r="24" style="fill:#931237"/><circle cx="416" cy="400" r="24" style="fill:#720e2a"/><circle cx="416" cy="304" r="24" style="fill:#720e2a"/><circle cx="464" cy="304" r="24" style="fill:#720e2a"/><circle cx="368" cy="304" r="24" style="fill:#720e2a"/><circle cx="72" cy="352" r="24" style="fill:#931237"/><circle cx="120" cy="352" r="24" style="fill:#931237"/><circle cx="96" cy="400" r="24" style="fill:#720e2a"/><circle cx="96" cy="304" r="24" style="fill:#720e2a"/><circle cx="144" cy="304" r="24" style="fill:#720e2a"/><circle cx="48" cy="304" r="24" style="fill:#720e2a"/><path d="M288,160l16,8c-8,24-48,32-48,32s-40-8-48-32l16-8s-16-16-16-48h24l24-24,24,24h24C304,144,288,160,288,160Z" style="fill:#818a55"/><path d="M248,256V136a8,8,0,0,1,16,0V256Z" style="fill:#ab6647"/><path d="M112,152h16c1.793,25.235-32,48-32,48s-31.425,3.112-48-16l9.151-10.334S36.246,165.564,24,136l24-8,8-40,32,24,24-16C124.246,125.564,112,152,112,152Z" style="fill:#818a55"/><path d="M88,256V201.12L72.308,146.2a8,8,0,0,1,15.384-4.4l16,56A8.013,8.013,0,0,1,104,200v56Z" style="fill:#ab6647"/><path d="M400,152H384c-1.793,25.235,32,48,32,48s31.425,3.112,48-16l-9.151-10.334S475.754,165.564,488,136l-24-8-8-40-32,24L400,96C387.754,125.564,400,152,400,152Z" style="fill:#818a55"/><path d="M408,256V200a8.013,8.013,0,0,1,.308-2.2l16-56a8,8,0,1,1,15.384,4.4L424,201.12V256Z" style="fill:#ab6647"/><circle cx="232" cy="256" r="24" style="fill:#931237"/><circle cx="280" cy="256" r="24" style="fill:#931237"/><circle cx="392" cy="256" r="24" style="fill:#931237"/><circle cx="440" cy="256" r="24" style="fill:#931237"/><circle cx="72" cy="256" r="24" style="fill:#931237"/><circle cx="120" cy="256" r="24" style="fill:#931237"/></svg>