<svg id="Flat" xmlns="http://www.w3.org/2000/svg" viewBox="0 0 512 512"><path d="M480,112s-8,32-48,32-48-32-48-32l16-8c-24-16-8-40-8-40l16,8,24-32,24,32,16-8s16,24-8,40Z" style="fill:#818a55"/><path d="M432,184a8,8,0,0,1-8-8V96a8,8,0,0,1,16,0v80A8,8,0,0,1,432,184Z" style="fill:#ab6647"/><path d="M134.864,120a8,8,0,0,1-7.424-10.966c.546-1.366,10.72-26.266,31.349-41.909-1.309-13.645,1.923-28.308,9.422-39.557a8,8,0,0,1,13.313,8.875,43.81,43.81,0,0,0-6.883,21.776,55.794,55.794,0,0,1,6.286-1.975c12.479-3.119,23.31-.431,29.714,7.376a24.965,24.965,0,0,1,2.853,26.424C209.357,98.782,200.9,104,190.868,104c-11.088,0-20.438-6.062-26.329-17.07q-.688-1.287-1.3-2.624c-13.654,12.938-20.849,30.424-20.951,30.676A8.01,8.01,0,0,1,134.864,120Zm41.814-45.24a29.825,29.825,0,0,0,1.967,4.625c3.062,5.72,7.174,8.62,12.223,8.62,4.868,0,7.126-2.612,8.163-4.8,1.5-3.175,1.189-7.055-.762-9.434-2.354-2.872-7.136-3.581-13.461-2A41.116,41.116,0,0,0,176.678,74.756Z" style="fill:#ab6647"/><circle cx="320" cy="128" r="32" style="fill:#931237"/><circle cx="264" cy="128" r="32" style="fill:#720e2a"/><circle cx="176" cy="160" r="32" style="fill:#720e2a"/><circle cx="224" cy="168" r="32" style="fill:#931237"/><circle cx="288" cy="176" r="32" style="fill:#720e2a"/><circle cx="448" cy="160" r="32" style="fill:#931237"/><circle cx="400" cy="168" r="32" style="fill:#720e2a"/><circle cx="352" cy="176" r="32" style="fill:#931237"/><circle cx="120" cy="120" r="32" style="fill:#931237"/><circle cx="72" cy="160" r="32" style="fill:#720e2a"/><circle cx="128" cy="176" r="32" style="fill:#931237"/><polygon points="488 184 432 488 80 488 24 184 488 184" style="fill:#ab6647"/><polygon points="422.72 184 369.52 488 353.28 488 406.48 184 422.72 184" style="fill:#93573d"/><polygon points="327.24 184 296.84 488 280.76 488 311.16 184 327.24 184" style="fill:#93573d"/><polygon points="158.72 488 142.48 488 89.28 184 105.52 184 158.72 488" style="fill:#93573d"/><polygon points="229.54 488 213.47 488 184.73 184 200.79 184 229.54 488" style="fill:#93573d"/><polygon points="443.79 424 432 488 80 488 68.21 424 443.79 424" style="fill:#b17a62"/><polygon points="467.37 296 455.58 360 56.42 360 44.63 296 467.37 296" style="fill:#b17a62"/><circle cx="184" cy="456" r="8" style="fill:#93573d"/><circle cx="96" cy="328" r="8" style="fill:#93573d"/><circle cx="160" cy="328" r="8" style="fill:#93573d"/><circle cx="256" cy="328" r="8" style="fill:#93573d"/><circle cx="256" cy="456" r="8" style="fill:#93573d"/><circle cx="112" cy="456" r="8" style="fill:#93573d"/><circle cx="328" cy="456" r="8" style="fill:#93573d"/><circle cx="416" cy="328" r="8" style="fill:#93573d"/><circle cx="344" cy="328" r="8" style="fill:#93573d"/><circle cx="400" cy="456" r="8" style="fill:#93573d"/></svg>