<svg id="Flat" xmlns="http://www.w3.org/2000/svg" viewBox="0 0 512 512"><path d="M424,264s16-16,16-56l-24,8s0-40-48-56v32s-32-8-64,0c0,0,8,40,32,56l-32,16s24,40,72,8v32S408,288,424,264Z" style="fill:#818a55"/><path d="M473.236,312.1a109.372,109.372,0,0,0-25.226-1.126,88.81,88.81,0,0,0-7.715-30.253c-16.023-35.607-51.022-54.585-77.561-64.236a8,8,0,1,0-5.468,15.038c33.977,12.355,56.876,30.837,68.059,54.934a72.575,72.575,0,0,1,6.8,27.112,81.178,81.178,0,0,0-25.477,11.4c-14.208,9.656-21.3,21.353-22.283,24.521a8.051,8.051,0,0,0,4.2,9.74,7.994,7.994,0,0,0,10.659-3.793,8.294,8.294,0,0,0,.365-.9c1.951-3.374,21.552-34.387,71.173-26.625a8,8,0,0,0,2.472-15.808Z" style="fill:#ab6647"/><path d="M192,256c0,24,24,32,24,32,32,16,32,40,32,56v96H56V344c0-16,0-40,32-56,0,0,24-8,24-32s-24-32-24-32c-32-16-32-40-32-56V72H248v96c0,16,0,40-32,56C216,224,192,232,192,256Z" style="fill:#e8edf1"/><rect x="56" y="424" width="192" height="64" style="fill:#93573d"/><rect x="56" y="24" width="192" height="64" style="fill:#93573d"/><rect x="40" y="24" width="224" height="32" style="fill:#ab6647"/><rect x="40" y="456" width="224" height="32" style="fill:#ab6647"/><path d="M189.032,204.759A31.8,31.8,0,0,0,168,234.816V312c0,16,16,32,32,40s16,24,16,40H88c0-16,0-32,16-40s32-24,32-40V234.816a31.8,31.8,0,0,0-21.032-30.057C88,195.235,88,168,88,168V144l13.953-8.372a48,48,0,0,1,51.321,1.222l6.183,4.121A48,48,0,0,0,195.5,148.1L216,144v24S216,195.235,189.032,204.759Z" style="fill:#c2c5c6"/><circle cx="248" cy="456" r="32" style="fill:#931237"/><circle cx="312" cy="456" r="32" style="fill:#931237"/><circle cx="280" cy="400" r="32" style="fill:#720e2a"/><circle cx="344" cy="400" r="32" style="fill:#720e2a"/><circle cx="376" cy="456" r="32" style="fill:#931237"/><circle cx="408" cy="400" r="32" style="fill:#720e2a"/><circle cx="312" cy="344" r="32" style="fill:#931237"/><circle cx="376" cy="344" r="32" style="fill:#931237"/></svg>