<svg id="Flat" xmlns="http://www.w3.org/2000/svg" viewBox="0 0 512 512"><path d="M488,376v88H24V376s16-32,64-32c0,0,24-40,88-40,0,0,24-32,80-32s80,32,80,32c64,0,88,40,88,40C472,344,488,376,488,376Z" style="fill:#d28f76"/><path d="M192,440a8,8,0,0,1-8-8c0-20.7,11.362-30.625,28.422-39.155,4.209-2.105,7.657-8.256,9.711-17.323A80.646,80.646,0,0,0,224,359.989a8,8,0,0,1,8-7.983h.011A8,8,0,0,1,240,360c0,3.781-.573,37.23-20.422,47.155C204.574,414.657,200,420.462,200,432A8,8,0,0,1,192,440Z" style="fill:#8a523a"/><path d="M332.565,377.335c-13.715,0-30.166-4.869-36.145-22.805-2.444-7.333-8.354-12.653-17.566-15.814A52.592,52.592,0,0,0,263.985,336a8,8,0,0,1,.025-16c1.542,0,37.878.335,47.589,29.47,5.544,16.629,29.479,11.01,30.494,10.763a8,8,0,0,1,3.857,15.528A56.458,56.458,0,0,1,332.565,377.335Z" style="fill:#8a523a"/><path d="M231.8,328V312c-2.076,0-20.8.773-38.656,27.562-11.176,16.763-26.633,19.779-31.692,20.32l-30.074-15.037a8,8,0,0,0-7.156,14.31l25.794,12.9-5.805,17.418a8,8,0,1,0,15.178,5.06L165.76,375.4c9.278-1.537,27.424-7.066,40.691-26.966C219.486,328.886,231.5,328.023,232,328A1.437,1.437,0,0,1,231.8,328Z" style="fill:#8a523a"/><circle cx="360" cy="432" r="8" style="fill:#ab6647"/><circle cx="408" cy="400" r="8" style="fill:#ab6647"/><circle cx="456" cy="432" r="8" style="fill:#ab6647"/><circle cx="56" cy="432" r="8" style="fill:#ab6647"/><circle cx="104" cy="400" r="8" style="fill:#ab6647"/><circle cx="152" cy="432" r="8" style="fill:#ab6647"/><path d="M316.59,420.47c-4.753-14.258-13.764-23.961-26.06-28.06-7.332-2.443-12.653-8.353-15.813-17.565A52.643,52.643,0,0,1,272,359.979,8,8,0,0,0,256,360a68.2,68.2,0,0,0,3.411,19.53c3.414,10.244,9.037,18.121,16.487,23.273l-18.3,24.4a8,8,0,1,0,12.8,9.6l20.093-26.79c4.785,3.12,8.4,8.19,10.791,15.145A52.625,52.625,0,0,1,304,440a8,8,0,0,0,16,0A68.181,68.181,0,0,0,316.59,420.47Z" style="fill:#8a523a"/><path d="M152,199.931v16c25.235,1.793,48-32,48-32s3.112-31.424-16-48l-10.334,9.151s-8.1-20.9-37.666-33.151l-8,24-40,8,24,32-16,24C125.564,212.177,152,199.931,152,199.931Z" style="fill:#818a55"/><path d="M232,191.931H200a8.013,8.013,0,0,1-2.2-.308l-56-16a8,8,0,0,1,4.4-15.385l54.923,15.693H232a8,8,0,0,1,0,16Z" style="fill:#ab6647"/><path d="M400,120l-8,16c-24-8-32-48-32-48s8-40,32-48l8,16s16-16,48-16V64l24,24-24,24v24C416,136,400,120,400,120Z" style="fill:#818a55"/><path d="M424,96H328a8,8,0,0,1,0-16h96a8,8,0,0,1,0,16Z" style="fill:#ab6647"/><path d="M224,360V232s-16-8-16-32,16-32,16-32V72l48,32v64l40-56V64l32-16v72L272,232V360Z" style="fill:#ab6647"/></svg>