<svg id="Flat" xmlns="http://www.w3.org/2000/svg" viewBox="0 0 512 512"><path d="M176,264s-23.4-34.2-76.181-12.635L112,264s-24-8-48,32l16,16-8,32h32l16,24s36.459-25.816,32-48l16,24S202.671,310.569,176,264Z" style="fill:#818a55"/><path d="M120,312a8,8,0,0,1-5.657-13.656c1.361-1.361,33.629-33.433,59.127-41.933a8,8,0,0,1,5.06,15.18c-21.912,7.3-52.568,37.762-52.874,38.068A7.976,7.976,0,0,1,120,312Z" style="fill:#ab6647"/><polygon points="192 88 136 96 368 216 384 184 352 160 352 144 192 88" style="fill:#d9dbdd"/><polygon points="368 216 488 280 488 240 384 184 368 216" style="fill:#931237"/><rect x="216" y="48" width="32" height="240" style="fill:#ab6647"/><rect x="24" y="24" width="464" height="32" style="fill:#c2856c"/><circle cx="232" cy="344" r="32" style="fill:#931237"/><circle cx="168" cy="344" r="32" style="fill:#931237"/><circle cx="296" cy="344" r="32" style="fill:#931237"/><circle cx="264" cy="288" r="32" style="fill:#720e2a"/><circle cx="200" cy="288" r="32" style="fill:#720e2a"/><circle cx="200" cy="400" r="32" style="fill:#720e2a"/><circle cx="264" cy="400" r="32" style="fill:#720e2a"/><circle cx="232" cy="456" r="32" style="fill:#931237"/><polygon points="192 216 136 208 368 88 384 120 352 144 352 160 192 216" style="fill:#e8edf1"/><path d="M305.73,120.21c-36.47,50.07-112.34,94.82-113.71,95.78a.031.031,0,0,1-.02.01l-56-8Z" style="fill:#e0e2e5"/><polygon points="368 88 488 24 488 64 384 120 368 88" style="fill:#931237"/></svg>