<svg id="Flat" xmlns="http://www.w3.org/2000/svg" viewBox="0 0 512 512"><path d="M368.1,144c16,48-32,88-32,88l-88,88-40-48-48-40,88-88s40-48,88-32l88-88,32,32Z" style="fill:#4f5659"/><rect x="185.877" y="169.775" width="124.451" height="124.451" transform="translate(-91.381 243.386) rotate(-45)" style="fill:#b01641"/><rect x="347.132" y="93.373" width="33.941" height="45.255" transform="translate(24.619 291.435) rotate(-45)" style="fill:#b01641"/><polygon points="288.051 272 320 224 360 232 368.051 272 288.051 272" style="fill:#e0e2e5"/><rect x="144" y="224" width="64" height="48" style="fill:#e0e2e5"/><path d="M232.051,432c-66.195,0-115.934-17.156-147.836-50.99-38.758-41.1-36.276-91.361-36.151-93.48A8,8,0,0,1,56.051,280h40a8,8,0,0,1,0,16H64.211c.949,14.445,6.058,47.021,31.824,74.224C124.808,400.6,170.57,416,232.051,416s107.243-15.4,136.015-45.776c25.763-27.2,30.873-59.767,31.824-74.224H368.051a8,8,0,1,1,0-16h40a8,8,0,0,1,7.986,7.53c.125,2.119,2.608,52.376-36.15,93.48C347.984,414.844,298.245,432,232.051,432Z" style="fill:#c2c5c6"/><polygon points="336.051 488 128.051 488 88.051 264 376.051 264 336.051 488" style="fill:#d9dbdd"/><polygon points="368.91 304 366.05 320 98.05 320 95.19 304 368.91 304" style="fill:#c2c5c6"/><polygon points="363.19 336 360.34 352 103.76 352 100.91 336 363.19 336" style="fill:#c2c5c6"/><polygon points="357.48 368 354.62 384 109.48 384 106.62 368 357.48 368" style="fill:#c2c5c6"/><polygon points="224 264 264 216 320.102 264 224 264" style="fill:#e8edf1"/><polygon points="96.102 232 144 216 160.102 264 96.102 264 96.102 232" style="fill:#e8edf1"/></svg>