<svg id="Flat" xmlns="http://www.w3.org/2000/svg" viewBox="0 0 512 512"><polygon points="296 304 448 224 448 272 296 352 296 304" style="fill:#93573d"/><polygon points="328 320 480 240 480 280 328 360 328 320" style="fill:#ab6647"/><path d="M232,456H424a64,64,0,0,0,64-64V376a64,64,0,0,0-64-64h-2.745a32,32,0,0,1-22.628-9.373l-29.254-29.254A32,32,0,0,0,346.745,264H264a96,96,0,0,0-96,96v32A64,64,0,0,0,232,456Z" style="fill:#c2856c"/><path d="M200,360v32a32,32,0,0,0,32,32H424a32,32,0,0,0,32-32V376a32,32,0,0,0-32-32H405.255a32,32,0,0,1-22.628-9.373l-29.254-29.254A32,32,0,0,0,330.745,296H264A64,64,0,0,0,200,360Z" style="fill:#ab6647"/><circle cx="276" cy="356" r="20" style="fill:#93573d"/><path d="M136,456H488a0,0,0,0,1,0,0v0a32,32,0,0,1-32,32H136a0,0,0,0,1,0,0V456A0,0,0,0,1,136,456Z" style="fill:#ab6647"/><path d="M136,432V288c0-16,24-40,24-40H80s24,24,24,40V432c0,32-64,56-64,56H200S136,464,136,432Z" style="fill:#e8edf1"/><path d="M24,168a96,96,0,0,0,192,0c0-56-40-144-40-144H64S24,112,24,168Z" style="fill:#e8edf1"/><path d="M216,168a96,96,0,0,1-192,0,168.948,168.948,0,0,1,2.21-25.59C33.85,137.06,59.77,120,80,120c24,0,56,40,80,40,20.58,0,47.04-11.76,54.16-15.11A162.75,162.75,0,0,1,216,168Z" style="fill:#931237"/></svg>