<svg id="Flat" xmlns="http://www.w3.org/2000/svg" viewBox="0 0 512 512"><rect x="352" y="184" width="112" height="96" style="fill:#b5b8b9"/><rect x="352" y="392" width="80" height="48" style="fill:#e0e2e5"/><rect x="352" y="312" width="112" height="96" style="fill:#b5b8b9"/><rect x="184" y="160" width="48" height="48" style="fill:#b5b8b9"/><polygon points="240 232 240 200 176 200 176 232 128 248 128 440 288 440 288 248 240 232" style="fill:#cfd1d3"/><rect x="88" y="424" width="240" height="32" style="fill:#b5b8b9"/><rect x="168" y="120" width="80" height="48" style="fill:#cfd1d3"/><path d="M208,72S48,72,48,184V488H96V184l72-48h80l72,48V488h48V184C368,72,208,72,208,72Z" style="fill:#cfd1d3"/><rect x="168" y="24" width="80" height="72" style="fill:#cfd1d3"/><rect x="48" y="456" width="48" height="32" style="fill:#b5b8b9"/><path d="M368,184H320l-72-48H168L96,184H48C48,72,208,72,208,72S368,72,368,184Z" style="fill:#e0e2e5"/><rect x="320" y="456" width="48" height="32" transform="translate(688 944) rotate(-180)" style="fill:#b5b8b9"/><rect x="128" y="272" width="160" height="16" style="fill:#e0e2e5"/><rect x="128" y="320" width="160" height="16" style="fill:#e0e2e5"/><rect x="128" y="368" width="160" height="16" style="fill:#e0e2e5"/><circle cx="400" cy="216" r="8" style="fill:#cfd1d3"/><circle cx="432" cy="216" r="8" style="fill:#cfd1d3"/><circle cx="400" cy="248" r="8" style="fill:#cfd1d3"/><circle cx="432" cy="248" r="8" style="fill:#cfd1d3"/><circle cx="416" cy="360" r="16" style="fill:#e0e2e5"/><rect x="176" y="200" width="64" height="32" style="fill:#e0e2e5"/></svg>