<svg id="Flat" xmlns="http://www.w3.org/2000/svg" viewBox="0 0 512 512"><path d="M184,268.664V160a8,8,0,0,0-16,0V268.664A81.156,81.156,0,0,1,128,296h96A81.156,81.156,0,0,1,184,268.664Z" style="fill:#e8edf1"/><path d="M344,268.664V160a8,8,0,0,0-16,0V268.664A81.156,81.156,0,0,1,288,296h96A81.156,81.156,0,0,1,344,268.664Z" style="fill:#e8edf1"/><path d="M112,104a64,64,0,0,0,128,0c0-24-24-96-24-96H136S112,80,112,104Z" style="fill:#e8edf1"/><path d="M272,104a64,64,0,0,0,128,0c0-24-24-96-24-96H296S272,80,272,104Z" style="fill:#e8edf1"/><path d="M240,104a64,64,0,0,1-128,0c0-6.94,2.01-17.89,4.86-29.96l20.91-5.98a32.02,32.02,0,0,1,26.54,4.15L184.55,85.7a32.011,32.011,0,0,0,32.06,2l19.44-9.72C238.41,88.47,240,97.82,240,104Z" style="fill:#931237"/><path d="M396.05,77.98,376.61,87.7a32.011,32.011,0,0,1-32.06-2L324.31,72.21a32.02,32.02,0,0,0-26.54-4.15l-20.91,5.98C283.87,44.38,296,8,296,8h80S389.24,47.71,396.05,77.98Z" style="fill:none"/><path d="M400,104a64,64,0,0,1-128,0c0-6.94,2.01-17.89,4.86-29.96l20.91-5.98a32.02,32.02,0,0,1,26.54,4.15L344.55,85.7a32.011,32.011,0,0,0,32.06,2l19.44-9.72C398.41,88.47,400,97.82,400,104Z" style="fill:#931237"/><path d="M160,376s-72-16-88,8c0,0,120,48,168,80Z" style="fill:#deb89a"/><path d="M360,504s24-24,24-48-8-88,32-120c0,0-40-8-64,32s-40,56-120,16-88-48-112-48c0,0-24,0-32,16,0,0,120,48,176,152Z" style="fill:#eec5a5"/><rect x="48" y="304" width="416" height="32" style="fill:#d9dbdd"/><path d="M480,312H32a8,8,0,0,1,0-16H480a8,8,0,0,1,0,16Z" style="fill:#d9dbdd"/></svg>