<svg id="Flat" xmlns="http://www.w3.org/2000/svg" viewBox="0 0 512 512"><path d="M376,256a8,8,0,0,1-8-8V136a72.081,72.081,0,0,0-72-72H264a72.081,72.081,0,0,0-72,72V248a8,8,0,0,1-16,0V136a88.1,88.1,0,0,1,88-88h32a88.1,88.1,0,0,1,88,88V248A8,8,0,0,1,376,256Z" style="fill:#8a523a"/><path d="M384,144c16,48-32,88-32,88l-88,88-40-48-48-40,88-88s40-48,88-32l88-88,32,32Z" style="fill:#4f5659"/><rect x="349.775" y="61.373" width="124.451" height="45.255" transform="translate(61.275 315.931) rotate(-45)" style="fill:#931237"/><rect x="201.775" y="169.775" width="124.451" height="124.451" transform="translate(-86.725 254.627) rotate(-45)" style="fill:#6a7073"/><rect x="363.029" y="93.373" width="33.941" height="45.255" transform="translate(29.275 302.676) rotate(-45)" style="fill:#6a7073"/><polygon points="456 216 56 216 24 488 488 488 456 216" style="fill:#c2856c"/><polygon points="408 488 488 488 456 216 376 216 408 488" style="fill:#ab6647"/><path d="M488,488l-38.986-38.986L424.04,216H408a8.235,8.235,0,0,0,.05.85L433.07,450.4,408,488Z" style="fill:#8a523a"/><path d="M328,256a8,8,0,0,1-8-8V136a72.081,72.081,0,0,0-72-72H216a72.081,72.081,0,0,0-72,72V248a8,8,0,0,1-16,0V136a88.1,88.1,0,0,1,88-88h32a88.1,88.1,0,0,1,88,88V248A8,8,0,0,1,328,256Z" style="fill:#8a523a"/><path d="M240,264l-48,8-16-24c-16,16-16,48-16,48l-24-8c-8,32,24,56,24,56s24,16,56,0Z" style="fill:#9f8348"/><circle cx="176" cy="432" r="24" style="fill:#931237"/><circle cx="224" cy="432" r="24" style="fill:#931237"/><circle cx="272" cy="432" r="24" style="fill:#931237"/><circle cx="320" cy="432" r="24" style="fill:#931237"/><circle cx="256" cy="384" r="24" style="fill:#720e2a"/><circle cx="304" cy="384" r="24" style="fill:#720e2a"/><circle cx="232" cy="336" r="24" style="fill:#931237"/><circle cx="280" cy="336" r="24" style="fill:#931237"/><path d="M200,376l-15.13-.007a11.276,11.276,0,0,0-1.474-.067c-8.917.189-19.8-3.892-30.468-11.294,4.706-11.828,25.421-43.971,42.931-53.627A8,8,0,1,0,188.137,297c-14.792,8.156-28.579,26.141-35.48,36.135a167.991,167.991,0,0,0-12.513,21.09,131.1,131.1,0,0,1-13.85-15.165,8,8,0,1,0-12.588,9.875,143.136,143.136,0,0,0,25.384,25.386c14.647,11.386,30.128,17.617,43.716,17.617h.208a7.979,7.979,0,0,0,.982.061L200,392h0a8,8,0,0,0,0-16Z" style="fill:#ab6647"/><circle cx="208" cy="384" r="24" style="fill:#720e2a"/></svg>