<svg id="Flat" xmlns="http://www.w3.org/2000/svg" viewBox="0 0 512 512"><path d="M208,384H432a0,0,0,0,1,0,0v40a32,32,0,0,1-32,32H240a32,32,0,0,1-32-32V384A0,0,0,0,1,208,384Z" style="fill:#e0e2e5"/><path d="M408,408H232a24,24,0,0,1-24-24V352a24,24,0,0,1,24-24H352a24,24,0,0,1,24,24h32a24,24,0,0,1,24,24v8A24,24,0,0,1,408,408Z" style="fill:#f48935"/><path d="M432,376v8a24.006,24.006,0,0,1-24,24H232a24.025,24.025,0,0,1-24-24V352a24.006,24.006,0,0,1,24-24H352a24.018,24.018,0,0,1,24,24h32a24.01,24.01,0,0,1,24,24Z" style="fill:#f48935"/><polygon points="309.33 328 276 408 258.67 408 292 328 309.33 328" style="fill:#fae8d8"/><path d="M269.33,328,236,408h-4a23.81,23.81,0,0,1-11.99-3.22L252,328Z" style="fill:#fae8d8"/><polygon points="349.33 328 316 408 298.67 408 332 328 349.33 328" style="fill:#fae8d8"/><path d="M379.33,352,356,408H338.67l30.37-72.89A23.934,23.934,0,0,1,376,352Z" style="fill:#fae8d8"/><path d="M418.35,354.35,396,408H378.67L402,352h6A23.813,23.813,0,0,1,418.35,354.35Z" style="fill:#fae8d8"/><path d="M136,456H488a0,0,0,0,1,0,0v0a32,32,0,0,1-32,32H136a0,0,0,0,1,0,0V456A0,0,0,0,1,136,456Z" style="fill:#ab6647"/><path d="M136,432V288c0-16,24-40,24-40H80s24,24,24,40V432c0,32-64,56-64,56H200S136,464,136,432Z" style="fill:#e8edf1"/><path d="M24,168a96,96,0,0,0,192,0c0-56-40-144-40-144H64S24,112,24,168Z" style="fill:#e8edf1"/><path d="M216,168a96,96,0,0,1-192,0,168.948,168.948,0,0,1,2.21-25.59C33.85,137.06,59.77,120,80,120c24,0,56,40,80,40,20.58,0,47.04-11.76,54.16-15.11A162.75,162.75,0,0,1,216,168Z" style="fill:#931237"/></svg>