<svg id="Flat" xmlns="http://www.w3.org/2000/svg" viewBox="0 0 512 512"><polygon points="24 120 72 64 120 120 120 224 24 224 24 120" style="fill:#c2856c"/><rect x="56" y="152" width="32" height="72" style="fill:#724b3b"/><polygon points="72 64 152 64 192 120 192 224 120 224 120 120 72 64" style="fill:#ab6647"/><path d="M344,296s-40-96-320-88V488H344Z" style="fill:#8e9c4c"/><path d="M24,488s0-224,368-216V488Z" style="fill:#9fa969"/><path d="M174.46,215.45c-7.4,20.64-17.44,54.43-23.93,99.52-32.96,16.44-57.34,36.06-75.36,56.08,9.29-68.56,36.76-131.26,51.4-160.96C143.84,211.43,159.77,213.25,174.46,215.45Z" style="fill:#818a55"/><path d="M267.93,279.38q-23.82,3.75-44.6,9.08c-.94-27.49-2.73-49.3-4.3-64.39a373.908,373.908,0,0,1,37.36,11.02A262.377,262.377,0,0,1,267.93,279.38Z" style="fill:#818a55"/><path d="M180.35,301.95C173.64,329.82,160,397.54,160,488H112c0-75.09,10.79-132.2,17.89-161.68A310.386,310.386,0,0,1,180.35,301.95Z" style="fill:#818a55"/><path d="M352,488H288c0-99.29-33.7-174.51-48.81-203.26,14.92-3.24,30.89-5.95,47.96-8.03C303.86,307.96,352,392.96,352,488Z" style="fill:#818a55"/><polygon points="120 120 192 120 152 64 72 64 120 120" style="fill:#724b3b"/><circle cx="288" cy="96" r="24" style="fill:#e4bc43"/><path d="M288,48a8,8,0,0,1-8-8V24a8,8,0,0,1,16,0V40A8,8,0,0,1,288,48Z" style="fill:#e4bc43"/><path d="M288,176a8,8,0,0,1-8-8V152a8,8,0,0,1,16,0v16A8,8,0,0,1,288,176Z" style="fill:#e4bc43"/><path d="M327.6,64.4a8,8,0,0,1-5.657-13.656l11.313-11.314a8,8,0,0,1,11.315,11.312L333.255,62.059A7.974,7.974,0,0,1,327.6,64.4Z" style="fill:#e4bc43"/><path d="M237.088,154.912a8,8,0,0,1-5.657-13.656l11.314-11.315a8,8,0,1,1,11.314,11.313l-11.313,11.314A7.973,7.973,0,0,1,237.088,154.912Z" style="fill:#e4bc43"/><path d="M360,104H344a8,8,0,0,1,0-16h16a8,8,0,0,1,0,16Z" style="fill:#e4bc43"/><path d="M232,104H216a8,8,0,0,1,0-16h16a8,8,0,0,1,0,16Z" style="fill:#e4bc43"/><path d="M338.912,154.912a7.975,7.975,0,0,1-5.658-2.344l-11.313-11.314a8,8,0,1,1,11.314-11.313l11.314,11.315a8,8,0,0,1-5.657,13.656Z" style="fill:#e4bc43"/><path d="M248.4,64.4a7.974,7.974,0,0,1-5.657-2.343L231.431,50.744a8,8,0,0,1,11.315-11.312l11.313,11.314A8,8,0,0,1,248.4,64.4Z" style="fill:#e4bc43"/><path d="M488,232V472a16,16,0,0,1-16,16H360a16,16,0,0,1-16-16V232c0-56,48-80,48-80V72h-8V24h64V72h-8v80S488,176,488,232Z" style="fill:#4f5659"/><path d="M376,264a8,8,0,0,1-8-8V232c0-29.175,17.818-46.634,28.438-54.445a8,8,0,0,1,9.48,12.89C397.732,196.465,384,209.868,384,232v24A8,8,0,0,1,376,264Z" style="fill:#6a7073"/><rect x="392" y="120" width="48" height="32" style="fill:#6a7073"/><rect x="344" y="288" width="144" height="112" style="fill:#6a7073"/><polygon points="448 24 448 72 440 72 440 120 392 120 392 72 384 72 384 24 448 24" style="fill:#931237"/></svg>