<svg id="Flat" xmlns="http://www.w3.org/2000/svg" viewBox="0 0 512 512"><path d="M64,480a8,8,0,0,1-8-8V376a8,8,0,0,1,16,0v96A8,8,0,0,1,64,480Z" style="fill:#e8edf1"/><path d="M40,288H88s16,40,16,56a40,40,0,0,1-80,0C24,328,40,288,40,288Z" style="fill:#e8edf1"/><path d="M103.14,336H24.86C28.18,317.54,40,288,40,288H88S99.82,317.54,103.14,336Z" style="fill:none"/><path d="M104,344a40,40,0,0,1-80,0,47.38,47.38,0,0,1,.86-8h78.28A47.38,47.38,0,0,1,104,344Z" style="fill:#931237"/><path d="M488,323.777V488H168V323.777a32,32,0,0,1,17.689-28.622L280,248h96l94.311,47.155A32,32,0,0,1,488,323.777Z" style="fill:#e8edf1"/><path d="M216,280V488H336V360c-48-40-56-112-56-112Z" style="fill:#891133"/><path d="M256,80H400a0,0,0,0,1,0,0v88a64,64,0,0,1-64,64H320a64,64,0,0,1-64-64V80A0,0,0,0,1,256,80Z" style="fill:#eec5a5"/><path d="M304,80s32,48,96,48V72a48,48,0,0,0-48-48H304a48,48,0,0,0-48,48v56S296,120,304,80Z" style="fill:#4f5659"/><path d="M440,280V488H320V360c48-40,56-112,56-112Z" style="fill:#931237"/><circle cx="352" cy="392" r="8" style="fill:#b01641"/><circle cx="352" cy="440" r="8" style="fill:#b01641"/><rect x="312" y="232" width="32" height="32" style="fill:#464c4f"/><path d="M312,232l-8.845-4.422A16,16,0,0,0,280,241.889v12.222a16,16,0,0,0,23.155,14.311L312,264Z" style="fill:#4f5659"/><path d="M344,232l8.845-4.422A16,16,0,0,1,376,241.889v12.222a16,16,0,0,1-23.155,14.311L344,264Z" style="fill:#4f5659"/><rect x="168" y="168" width="32" height="112" style="fill:#931237"/><path d="M168,264h32a32,32,0,0,1,32,32V488a0,0,0,0,1,0,0H136a0,0,0,0,1,0,0V296A32,32,0,0,1,168,264Z" style="fill:#4f5659"/><path d="M24,456H264a0,0,0,0,1,0,0v16a16,16,0,0,1-16,16H40a16,16,0,0,1-16-16V456A0,0,0,0,1,24,456Z" style="fill:#d9dbdd"/><rect x="168" y="232" width="32" height="32" style="fill:#6a7073"/><rect x="136" y="344" width="96" height="80" style="fill:#6a7073"/></svg>