<svg id="Flat" xmlns="http://www.w3.org/2000/svg" viewBox="0 0 512 512"><polygon points="456 72 456 24 168 24 168 72 136 240 136 488 488 488 488 240 456 72" style="fill:#c2856c"/><rect x="168" y="24" width="288" height="48" style="fill:#ab6647"/><polygon points="488 240 488 488 424 488 424 240 456 72 488 240" style="fill:#ab6647"/><path d="M424,312V488H136V312s56,72,152,72C368,384,424,312,424,312Z" style="fill:#8a523a"/><path d="M464,114V256a8,8,0,0,1-16,0V114l8-42Z" style="fill:#8a523a"/><path d="M288,464a8,8,0,0,1-8-8V352a8,8,0,0,1,16,0V456A8,8,0,0,1,288,464Z" style="fill:#cfac90"/><path d="M224,288a64,64,0,0,0,128,0c0-24-24-96-24-96H248S224,264,224,288Z" style="fill:#cfac90"/><path d="M352,288a64,64,0,0,1-128,0c0-6.94,2.01-17.89,4.86-29.96l20.91-5.98a32.02,32.02,0,0,1,26.54,4.15l20.24,13.49a32.011,32.011,0,0,0,32.06,2l19.44-9.72C350.41,272.47,352,281.82,352,288Z" style="fill:#931237"/><circle cx="384" cy="128" r="24" style="fill:#ab6647"/><path d="M328,120H200a8,8,0,0,1,0-16H328a8,8,0,0,1,0,16Z" style="fill:#ab6647"/><path d="M232,152H200a8,8,0,0,1,0-16h32a8,8,0,0,1,0,16Z" style="fill:#ab6647"/><path d="M328,152H264a8,8,0,0,1,0-16h64a8,8,0,0,1,0,16Z" style="fill:#ab6647"/><path d="M392,488H24c61.333,0,122.667-72,184-72C280.282,416,330.667,488,392,488Z" style="fill:#eec5a5"/><circle cx="192" cy="448" r="8" style="fill:#cfac90"/><circle cx="232" cy="456" r="8" style="fill:#cfac90"/></svg>