<svg id="Flat" xmlns="http://www.w3.org/2000/svg" viewBox="0 0 512 512"><path d="M272,432V312c0-24,32-64,32-64H208s32,40,32,64V432c0,32-64,56-64,56H336S272,464,272,432Z" style="fill:#e0e2e5"/><path d="M144,168a112,112,0,0,0,224,0c0-40-40-144-40-144H184S144,128,144,168Z" style="fill:#e8edf1"/><path d="M365.35,145.03C356.04,148.56,324.3,160,304,160c-24,0-72-40-96-40-19.9,0-50.81,16.51-60.78,22.14C156.73,94.9,184,24,184,24H328S356.41,97.86,365.35,145.03Z" style="fill:none"/><path d="M368,168a112,112,0,0,1-224,0c0-6.97,1.22-15.89,3.22-25.86C157.19,136.51,188.1,120,208,120c24,0,72,40,96,40,20.3,0,52.04-11.44,61.35-14.97A130.275,130.275,0,0,1,368,168Z" style="fill:#931237"/></svg>