<svg id="Flat" xmlns="http://www.w3.org/2000/svg" viewBox="0 0 512 512"><path d="M232,64a64,64,0,1,0,64,64A64,64,0,0,0,232,64Zm0,88a24,24,0,1,1,24-24A24.006,24.006,0,0,1,232,152Z" style="fill:#d9dbdd"/><path d="M320,240V424a64,64,0,0,1-64,64H96a64,64,0,0,1-64-64V240c0-64,64-80,88-96s24-48,24-48V24h64V96s0,32,24,48S320,176,320,240Z" style="fill:#e8edf1"/><path d="M320,280V424a64,64,0,0,1-64,64H96a64,64,0,0,1-64-64V272l69.921,29.134a64,64,0,0,0,51.68-1.081l71.289-33.268a64,64,0,0,1,47.3-2.72Z" style="fill:#931237"/><path d="M144,48h32a8,8,0,0,1,0,16H144Z" style="fill:#d9dbdd"/><path d="M208,96H176a8,8,0,0,1,0-16h32Z" style="fill:#d9dbdd"/><path d="M480,384c0,64-24,104-24,104H312s-24-40-24-104,72-104,72-176c0-88-24-112-24-112h96s-24,24-24,112C408,280,480,320,480,384Z" style="fill:#e8edf1"/><path d="M480,384c0,64-24,104-24,104H312s-19.71-32.85-23.41-86.64l33.26-13.3a64,64,0,0,1,57.686,5.152l6.026,3.767a64,64,0,0,0,62.542,2.971Z" style="fill:#b01641"/></svg>