<svg id="Flat" xmlns="http://www.w3.org/2000/svg" viewBox="0 0 512 512"><rect x="56" y="24" width="400" height="464" style="fill:#931237"/><rect x="88" y="56" width="336" height="400" style="fill:#e8edf1"/><rect x="200" y="88" width="32" height="56" style="fill:#931237"/><path d="M248,248H184V168a32,32,0,0,1,32-32h0a32,32,0,0,1,32,32Z" style="fill:#4f5659"/><rect x="184" y="184" width="64" height="32" style="fill:#931237"/><path d="M320,232h-8V192a8,8,0,0,0-16,0v40h-8a8,8,0,0,0,0,16h32a8,8,0,0,0,0-16Z" style="fill:#c2c5c6"/><path d="M168,288H120a8,8,0,0,1,0-16h48a8,8,0,0,1,0,16Z" style="fill:#c2c5c6"/><path d="M224,288H200a8,8,0,0,1,0-16h24a8,8,0,0,1,0,16Z" style="fill:#c2c5c6"/><path d="M168,336H120a8,8,0,0,1,0-16h48a8,8,0,0,1,0,16Z" style="fill:#c2c5c6"/><path d="M224,336H200a8,8,0,0,1,0-16h24a8,8,0,0,1,0,16Z" style="fill:#c2c5c6"/><path d="M168,384H120a8,8,0,0,1,0-16h48a8,8,0,0,1,0,16Z" style="fill:#c2c5c6"/><path d="M224,384H200a8,8,0,0,1,0-16h24a8,8,0,0,1,0,16Z" style="fill:#c2c5c6"/><path d="M168,432H120a8,8,0,0,1,0-16h48a8,8,0,0,1,0,16Z" style="fill:#c2c5c6"/><path d="M224,432H200a8,8,0,0,1,0-16h24a8,8,0,0,1,0,16Z" style="fill:#c2c5c6"/><path d="M336,288H288a8,8,0,0,1,0-16h48a8,8,0,0,1,0,16Z" style="fill:#c2c5c6"/><path d="M392,288H368a8,8,0,0,1,0-16h24a8,8,0,0,1,0,16Z" style="fill:#c2c5c6"/><path d="M336,336H288a8,8,0,0,1,0-16h48a8,8,0,0,1,0,16Z" style="fill:#c2c5c6"/><path d="M392,336H368a8,8,0,0,1,0-16h24a8,8,0,0,1,0,16Z" style="fill:#c2c5c6"/><path d="M336,384H288a8,8,0,0,1,0-16h48a8,8,0,0,1,0,16Z" style="fill:#c2c5c6"/><path d="M392,384H368a8,8,0,0,1,0-16h24a8,8,0,0,1,0,16Z" style="fill:#c2c5c6"/><path d="M336,432H288a8,8,0,0,1,0-16h48a8,8,0,0,1,0,16Z" style="fill:#c2c5c6"/><path d="M392,432H368a8,8,0,0,1,0-16h24a8,8,0,0,1,0,16Z" style="fill:#c2c5c6"/><path d="M256,432a8,8,0,0,1-8-8V280a8,8,0,0,1,16,0V424A8,8,0,0,1,256,432Z" style="fill:#c2c5c6"/><path d="M328,176a24,24,0,0,1-48,0l8-40h32Z" style="fill:#d9dbdd"/><polygon points="326.4 168 281.6 168 288 136 320 136 326.4 168" style="fill:#c2c5c6"/><path d="M328,176a24,24,0,0,1-48,0l1.6-8h44.8Z" style="fill:#931237"/></svg>