<svg id="Flat" xmlns="http://www.w3.org/2000/svg" viewBox="0 0 512 512"><path d="M304,403.149V96H208V403.149a56,56,0,1,0,96,0Z" style="fill:#d9dbdd"/><path d="M360,56V88s-24,32-104,32S152,88,152,88V56s24-32,104-32S360,56,360,56Z" style="fill:#e8edf1"/><path d="M272,414.116V280H240V414.116a24,24,0,1,0,32,0Z" style="fill:#931237"/><path d="M216,27.07v89.86a160.2,160.2,0,0,1-32-8.51V35.58A160.2,160.2,0,0,1,216,27.07Z" style="fill:#d9dbdd"/><path d="M296,27.07v89.86a160.2,160.2,0,0,0,32-8.51V35.58A160.2,160.2,0,0,0,296,27.07Z" style="fill:#d9dbdd"/><path d="M208,240h24a8,8,0,0,1,0,16H208Z" style="fill:#c2c5c6"/><path d="M208,176h24a8,8,0,0,1,0,16H208Z" style="fill:#c2c5c6"/><path d="M208,208h40a8,8,0,0,1,0,16H208Z" style="fill:#c2c5c6"/><path d="M208,144h40a8,8,0,0,1,0,16H208Z" style="fill:#c2c5c6"/></svg>