<svg id="Flat" xmlns="http://www.w3.org/2000/svg" viewBox="0 0 512 512"><circle cx="296" cy="208" r="72" style="fill:#4f5659"/><circle cx="152" cy="208" r="72" style="fill:#4f5659"/><rect x="56" y="216" width="320" height="64" style="fill:#ab6647"/><circle cx="152" cy="208" r="24" style="fill:#931237"/><circle cx="296" cy="208" r="24" style="fill:#931237"/><circle cx="152" cy="384" r="72" style="fill:#4f5659"/><path d="M392,392v64H56V392H273.38a23.99,23.99,0,0,0,45.24,0Z" style="fill:#ab6647"/><circle cx="152" cy="384" r="24" style="fill:#931237"/><path d="M488,232V472a16,16,0,0,1-16,16H360a16,16,0,0,1-16-16V232c0-56,48-80,48-80V72h-8V24h64V72h-8v80S488,176,488,232Z" style="fill:#4f5659"/><path d="M376,240a8,8,0,0,1-8-8c0-29.173,17.817-46.633,28.438-54.444a8,8,0,1,1,9.48,12.888C397.732,196.465,384,209.869,384,232A8,8,0,0,1,376,240Z" style="fill:#6a7073"/><rect x="392" y="120" width="48" height="32" style="fill:#6a7073"/><rect x="344" y="288" width="144" height="112" style="fill:#6a7073"/><polygon points="448 24 448 72 440 72 440 120 392 120 392 72 384 72 384 24 448 24" style="fill:#931237"/><rect x="24" y="200" width="48" height="256" style="fill:#93573d"/></svg>