<svg id="Flat" xmlns="http://www.w3.org/2000/svg" viewBox="0 0 512 512"><path d="M248,488c0-92.784,111.033-168,248-168V488Z" style="fill:#4f5659"/><path d="M496,488h0a53.977,53.977,0,0,1-53.608-47.671L432,352l64-72Z" style="fill:#deb89a"/><path d="M272,48s-24,48-8,64,32,16,24,56l-8,48s16,16,48,8v32s16,8,40,0c0,0,0,16-16,32,0,0,0,8,16,16,0,0-8,24,0,40s64,32,128-16V48Z" style="fill:#eec5a5"/><path d="M351.038,154a59.861,59.861,0,0,1-17.568-2.411,8,8,0,0,1,5.024-15.192,50.452,50.452,0,0,0,41.068-7.054,8,8,0,0,1,8.876,13.312A66.8,66.8,0,0,1,351.038,154Z" style="fill:#cfac90"/><path d="M248,24s16,40,88,56,120-8,160,80V24Z" style="fill:#ab6647"/><path d="M165.657,349.657a8,8,0,1,0-11.314-11.314l-90.73,90.73A81.15,81.15,0,0,1,16,420.118L83.882,488a81.15,81.15,0,0,1-8.955-47.613Z" style="fill:#e8edf1"/><path d="M120,168H72a32,32,0,0,1,0-64h96a16,16,0,0,0,0-32H72A32.036,32.036,0,0,1,40,40a8,8,0,0,1,16,0A16.019,16.019,0,0,0,72,56h96a32,32,0,0,1,0,64H72a16,16,0,0,0,0,32h48a8,8,0,0,1,0,16Z" style="fill:#d9dbdd"/><path d="M232,192a8,8,0,0,1-8-8,16.019,16.019,0,0,0-16-16H152a8,8,0,0,1,0-16h56a32.036,32.036,0,0,1,32,32A8,8,0,0,1,232,192Z" style="fill:#d9dbdd"/><path d="M146.108,267.383a64,64,0,0,0,90.509,90.509c16.971-16.97,50.912-84.852,50.912-84.852L230.96,216.471S163.078,250.412,146.108,267.383Z" style="fill:#e8edf1"/><path d="M262.08,320.32c-9.02,15.61-18.62,30.72-25.46,37.57A64,64,0,0,1,129.56,296h35.22a32.018,32.018,0,0,1,19.99,7.01l20.07,16.06a31.98,31.98,0,0,0,25.25,6.58Z" style="fill:#931237"/></svg>