<svg id="Flat" xmlns="http://www.w3.org/2000/svg" viewBox="0 0 512 512"><path d="M480,344V472a16,16,0,0,1-16,16H304a16,16,0,0,1-16-16V344c0-64,24-96,24-96,16-32,48-64,48-128v-8a16,16,0,0,1,0-32V48h48V80a16,16,0,0,1,0,32v8c0,64,32,96,48,128C456,248,480,280,480,344Z" style="fill:#464c4f"/><path d="M480,344V472a16,16,0,0,1-16,16H304a16,16,0,0,1-16-16V344c0-64,24-96,24-96,5.05-10.09,11.68-20.18,18.4-31.28C354.67,232,384,232,384,232s29.33,0,53.6-15.28c6.72,11.1,13.35,21.19,18.4,31.28C456,248,480,280,480,344Z" style="fill:none"/><path d="M437.6,216.72C413.33,232,384,232,384,232s-29.33,0-53.6-15.28C345,192.64,360,163.82,360,120v-8a16,16,0,0,1,0-32V48h48V80a16,16,0,0,1,0,32v8C408,163.82,423,192.64,437.6,216.72Z" style="fill:#931237"/><path d="M437.6,216.72C413.33,232,384,232,384,232s-29.33,0-53.6-15.28c-6.72,11.1-13.35,21.19-18.4,31.28,24,32,72,32,72,32s48,0,72-32C450.95,237.91,444.32,227.82,437.6,216.72Z" style="fill:#6a7073"/><path d="M224,344V472a16,16,0,0,1-16,16H48a16,16,0,0,1-16-16V344c0-16,8-32,32-80s40-120,40-120V88a16,16,0,0,1,0-32V24h48V56a16,16,0,0,1,0,32v56s16,72,40,120S224,328,224,344Z" style="fill:#464c4f"/><path d="M168,72a16,16,0,0,1-16,16v48H104V88a16,16,0,0,1,0-32V24h48V56A16,16,0,0,1,168,72Z" style="fill:#931237"/><path d="M75.958,320a8,8,0,0,1-7.208-11.46c4.381-9.138,9.8-19.983,16.668-33.713l.048-.1a8,8,0,0,1,14.311,7.156l-.048.095C92.9,295.648,87.5,306.441,83.178,315.458A8,8,0,0,1,75.958,320Z" style="fill:#6a7073"/><path d="M157.98,168H98.02c3.86-14.46,5.98-24,5.98-24v-8h48v8S154.12,153.54,157.98,168Z" style="fill:#6a7073"/><rect x="32" y="344" width="192" height="112" style="fill:#6a7073"/><path d="M446.813,336a8,8,0,0,1-7.95-7.2,196.391,196.391,0,0,0-5.5-30.744,8,8,0,0,1,15.463-4.112,212.481,212.481,0,0,1,5.962,33.256,8,8,0,0,1-7.16,8.76C447.352,335.987,447.081,336,446.813,336Z" style="fill:#6a7073"/><rect x="288" y="360" width="192" height="96" style="fill:#6a7073"/><circle cx="384" cy="256" r="24" style="fill:#464c4f"/><path d="M328,248V472a16,16,0,0,1-16,16H200a16,16,0,0,1-16-16V247.5c0-47.5,48-64,48-64v-80h-8v-48h64v48h-8v80S328,200,328,248Z" style="fill:#4f5659"/><polygon points="288 55.5 288 103.5 280 103.5 280 136 232 136 232 103.5 224 103.5 224 55.5 288 55.5" style="fill:#931237"/><path d="M216,264a8,8,0,0,1-8-8v-8.5c0-11.889,4.6-21.788,14.08-30.261a63.282,63.282,0,0,1,14.442-9.591,8,8,0,0,1,6.956,14.41,47.785,47.785,0,0,0-10.732,7.107C225.039,236.058,224,242.3,224,247.5V256A8,8,0,0,1,216,264Z" style="fill:#6a7073"/><rect x="232" y="136" width="48" height="32" style="fill:#6a7073"/><rect x="216" y="288" width="80" height="128" style="fill:#6a7073"/></svg>