<svg id="Flat" xmlns="http://www.w3.org/2000/svg" viewBox="0 0 512 512"><path d="M472,232V472a16,16,0,0,1-16,16H344a16,16,0,0,1-16-16V232c0-56,48-80,48-80V72h-8V24h64V72h-8v80S472,176,472,232Z" style="fill:#4f5659"/><rect x="352" y="264" width="96" height="152" style="fill:#6a7073"/><path d="M328,232V472a16,16,0,0,1-16,16H200a16,16,0,0,1-16-16V232c0-56,48-80,48-80V72h-8V24h64V72h-8v80S328,176,328,232Z" style="fill:#4f5659"/><path d="M184,232V472a16,16,0,0,1-16,16H56a16,16,0,0,1-16-16V232c0-56,48-80,48-80V72H80V24h64V72h-8v80S184,176,184,232Z" style="fill:#4f5659"/><rect x="208" y="264" width="96" height="152" style="fill:#6a7073"/><rect x="64" y="264" width="96" height="152" style="fill:#6a7073"/><rect x="232" y="120" width="48" height="32" style="fill:#6a7073"/><rect x="376" y="120" width="48" height="32" style="fill:#6a7073"/><rect x="88" y="120" width="48" height="32" style="fill:#6a7073"/><polygon points="440 280 440 456 72 456 72 280 24 280 24 488 488 488 488 280 440 280" style="fill:#93573d"/><rect x="24" y="392" width="464" height="64" style="fill:#b17a62"/><rect x="24" y="280" width="464" height="64" style="fill:#b17a62"/><circle cx="56" cy="312" r="8" style="fill:#93573d"/><circle cx="56" cy="424" r="8" style="fill:#93573d"/><circle cx="456" cy="424" r="8" style="fill:#93573d"/><circle cx="456" cy="312" r="8" style="fill:#93573d"/><path d="M216,240a8,8,0,0,1-8-8c0-29.173,17.817-46.633,28.438-54.445a8,8,0,0,1,9.48,12.89C237.732,196.465,224,209.869,224,232A8,8,0,0,1,216,240Z" style="fill:#6a7073"/><path d="M72,240a8,8,0,0,1-8-8c0-29.173,17.817-46.633,28.438-54.445a8,8,0,0,1,9.48,12.89C93.732,196.465,80,209.869,80,232A8,8,0,0,1,72,240Z" style="fill:#6a7073"/><path d="M360,240a8,8,0,0,1-8-8c0-29.173,17.817-46.633,28.438-54.445a8,8,0,0,1,9.48,12.89C381.732,196.465,368,209.869,368,232A8,8,0,0,1,360,240Z" style="fill:#6a7073"/><polygon points="144 24 144 72 136 72 136 120 88 120 88 72 80 72 80 24 144 24" style="fill:#931237"/><polygon points="288 24 288 72 280 72 280 120 232 120 232 72 224 72 224 24 288 24" style="fill:#931237"/><polygon points="432 24 432 72 424 72 424 120 376 120 376 72 368 72 368 24 432 24" style="fill:#931237"/></svg>