<svg id="Flat" xmlns="http://www.w3.org/2000/svg" viewBox="0 0 512 512"><path d="M368,460.664V352a8,8,0,0,0-16,0V460.664A81.156,81.156,0,0,1,312,488h96A81.156,81.156,0,0,1,368,460.664Z" style="fill:#e8edf1"/><path d="M248,232V472a16,16,0,0,1-16,16H104a16,16,0,0,1-16-16V232c0-56,56-80,56-80V72h-8V24h64V72h-8v80S248,176,248,232Z" style="fill:#4f5659"/><path d="M120,256a8,8,0,0,1-8-8V232c0-17.305,8.039-33.249,23.249-46.109a8,8,0,0,1,10.331,12.218C133.915,207.972,128,219.375,128,232v16A8,8,0,0,1,120,256Z" style="fill:#6a7073"/><rect x="144" y="120" width="48" height="32" style="fill:#6a7073"/><rect x="120" y="280" width="96" height="144" style="fill:#6a7073"/><path d="M424,296c0,48-40,72-64,72s-64-24-64-72,24-112,24-112h80S424,248,424,296Z" style="fill:#e8edf1"/><path d="M424,296c0,48-40,72-64,72s-64-24-64-72a221.508,221.508,0,0,1,3.73-37.64l22.042-6.3a32,32,0,0,1,26.54,4.144L368.549,269.7a32,32,0,0,0,32.061,2l20.21-10.105A214.787,214.787,0,0,1,424,296Z" style="fill:#931237"/><polygon points="200 24 200 72 192 72 192 120 144 120 144 72 136 72 136 24 200 24" style="fill:#931237"/></svg>