<svg id="Flat" xmlns="http://www.w3.org/2000/svg" viewBox="0 0 512 512"><path d="M296,432V288c0-16,24-40,24-40H240s24,24,24,40V432c0,32-64,56-64,56H360S296,464,296,432Z" style="fill:#e8edf1"/><path d="M184,168a96,96,0,0,0,192,0c0-56-40-144-40-144H224S184,112,184,168Z" style="fill:#e8edf1"/><path d="M376,168a96,96,0,0,1-192,0,168.948,168.948,0,0,1,2.21-25.59C193.85,137.06,219.77,120,240,120c24,0,56,40,80,40,20.58,0,47.04-11.76,54.16-15.11A162.75,162.75,0,0,1,376,168Z" style="fill:#931237"/><path d="M136,184a7.976,7.976,0,0,1-5.657-2.343c-9-9-10.343-22.444-10.343-29.657s1.344-20.657,10.343-29.657a8,8,0,1,1,11.314,11.314C138.062,137.252,136,143.938,136,152s2.062,14.748,5.657,18.343A8,8,0,0,1,136,184Z" style="fill:#d9dbdd"/><path d="M112,208a7.976,7.976,0,0,1-5.657-2.343C90.383,189.7,88,165.188,88,152s2.383-37.7,18.343-53.657a8,8,0,0,1,11.314,11.314C108.978,118.336,104,133.77,104,152s4.978,33.664,13.657,42.343A8,8,0,0,1,112,208Z" style="fill:#d9dbdd"/><path d="M424,184a8,8,0,0,1-5.657-13.657C421.938,166.748,424,160.063,424,152s-2.062-14.748-5.657-18.343a8,8,0,1,1,11.314-11.314c9,9,10.343,22.444,10.343,29.657s-1.344,20.657-10.343,29.657A7.976,7.976,0,0,1,424,184Z" style="fill:#d9dbdd"/><path d="M448,208a8,8,0,0,1-5.657-13.657C451.022,185.664,456,170.23,456,152s-4.978-33.664-13.657-42.343a8,8,0,0,1,11.314-11.314C469.617,114.3,472,138.812,472,152s-2.383,37.7-18.343,53.657A7.976,7.976,0,0,1,448,208Z" style="fill:#d9dbdd"/><path d="M184,304s32-56,32-104c0,0,48,8,16,80Z" style="fill:#deb89a"/><path d="M352,232l12.248-8.165a16,16,0,0,0,5.435-20.468L368,200a15.992,15.992,0,0,0-23-6.277C308.3,217.494,214.233,278.511,176,304c-48,32-56,56-56,56L48,384V496l88-24c16,8,48-8,48-8l142.849-67.665A16,16,0,0,0,336,381.875V352l4.52-2.26a16,16,0,0,0,8.367-18.192L344,312l10.31-3.437a16,16,0,0,0,10.56-18.65Zm-88,56,58.19-37.03L328,280Z" style="fill:#eec5a5"/><path d="M322.2,258.971a8,8,0,0,1-4.3-14.75l29.81-18.97a8,8,0,1,1,8.59,13.5l-29.81,18.97A7.963,7.963,0,0,1,322.2,258.971Z" style="fill:#deb89a"/><path d="M288,336a8,8,0,0,1-2.194-15.694l56-16a8,8,0,0,1,4.4,15.384l-56,16A8,8,0,0,1,288,336Z" style="fill:#deb89a"/><path d="M296,376a8,8,0,0,1-2.973-15.43l40-16a8,8,0,0,1,5.942,14.856l-40,16A7.992,7.992,0,0,1,296,376Z" style="fill:#deb89a"/></svg>